<svg xmlns="http://www.w3.org/2000/svg" viewBox="0 0 500 500"><g id="freepik--Character--inject-40"><g id="freepik--character--inject-40"><g id="freepik--Arm--inject-40"><path d="M407.77,87.64c-5.85-.23-10.7,1.66-15.28,7.22-4.91,6-11,13-18.28,21.07l-15.64-9.25-7.66,10.43s15.8,13.74,21.92,16.6c4.58,2.14,6.61.27,10.54-3,4.37-3.65,17.46-16.23,17.46-16.23Z" style="fill:#ffbda7"></path><path d="M374.21,115.93c3.46,1.81,5.87,4,6.42,6.85.15-4.49-4.24-7.15-5.47-7.92Z" style="fill:#f0997a"></path><g id="freepik--Tablet--inject-40"><path d="M340.68,86h0l1.3-.87h0a1.36,1.36,0,0,1,1.23,0l12.75,5.22a4.7,4.7,0,0,1,2.54,3l6,27.63a1.24,1.24,0,0,1-.34,1.34h0l-1.34.9h0a1.37,1.37,0,0,1-1.24,0L348.78,118a4.7,4.7,0,0,1-2.54-3l-6-27.64C340.14,86.68,340.31,86.2,340.68,86Z" style="fill:#455a64"></path><path d="M355.94,92.15a4.62,4.62,0,0,1,1.24,2.13l6,27.62a1.28,1.28,0,0,1-.3,1.32l1.27-.84v0a1.22,1.22,0,0,0,.34-1.33l-6-27.64a4.46,4.46,0,0,0-1.14-2Z" style="fill:#37474f"></path><path d="M363.13,121.91l-5.95-27.64a4.75,4.75,0,0,0-2.54-3L341.88,86c-1.14-.47-1.86.14-1.6,1.34,1.17,5.44,4.79,22.21,6,27.64a4.7,4.7,0,0,0,2.54,3l12.75,5.22C362.67,123.72,363.39,123.12,363.13,121.91Z" style="fill:#263238"></path><path d="M356.48,99.83l-1.11-5.17a.88.88,0,0,0-.48-.57l-2.31-.94c-.21-.09-.35,0-.3.25l1.12,5.17a.9.9,0,0,0,.47.57l2.31.94C356.4,100.17,356.53,100.06,356.48,99.83Z" style="fill:#455a64"></path><path d="M355.11,95.83a2.23,2.23,0,0,0-1.22-1.4c-.55-.23-.91,0-.79.58a2.27,2.27,0,0,0,1.22,1.41C354.87,96.64,355.23,96.38,355.11,95.83Z" style="fill:#263238"></path><path d="M355.64,98.44A2.27,2.27,0,0,0,354.42,97c-.55-.22-.91,0-.79.59a2.23,2.23,0,0,0,1.22,1.4C355.4,99.25,355.76,99,355.64,98.44Z" style="fill:#263238"></path><path d="M340.84,102.31c-1.2-1.87-1.06-2.1-.32-3a5.71,5.71,0,0,1,4.75-2.12c1.58.13,3.19.18,4,.65s0,2.14-2.08,2.5c-3.29.56-3.32,1.45-3.32,1.45a39.85,39.85,0,0,1,4.24-.52,29.59,29.59,0,0,1,4.74,1c1.36.29,1.54,2.08-.82,2.56l2.5.54c1.75.37,2.3,1.34.86,2.36a2.65,2.65,0,0,1-1.63.52s1.88.09,1.88.72c0,1.79-1.17,2.2-5,3.1-3.67.86-4.51,2.77-3.87,4.15,0,0-1.41-.92-2.66-1.89-.91-.7-1.68-1.48-1.17-2.94,0,0-2.07-.07-2.13-1.36a6.61,6.61,0,0,1,.64-2.71,2.26,2.26,0,0,1-1-2.18,3.68,3.68,0,0,1,.87-2.2Z" style="fill:#ffbda7"></path><path d="M352,104.82a11.1,11.1,0,0,0-2.27-.37,7.37,7.37,0,0,0-2.25.58,26.84,26.84,0,0,0-4.1,1.93,26.39,26.39,0,0,0,4.33-1.3,11.08,11.08,0,0,1,2.06-.69C350.47,104.89,351.26,104.92,352,104.82Z" style="fill:#f0997a"></path><path d="M353.74,108.23a5,5,0,0,0-2.47-.21,13.52,13.52,0,0,0-2.39.62,22.93,22.93,0,0,0-4.43,2.08,48.24,48.24,0,0,0,4.65-1.45A12.79,12.79,0,0,1,353.74,108.23Z" style="fill:#f0997a"></path></g></g><g id="freepik--Bottom--inject-40"><path d="M452.43,290.31c-.4-12.09.15-19.52-.8-37.25h0c-.08-4.54-.25-9.41-.55-13.73-1-14.55-3.27-19.52-3.48-22.33,0,0-.38-22.63-1.33-54.46-.45-15-4.79-19.51-8.26-27.46H395.9c-4.61,19.61-5,62.38-4.87,82.59.07,10.31,4.23,62.73,4.31,64,.29,4.49-.1,6.27-1.86,8.16-3.69,4-9.05,7.73-13.67,11.19.67,1.77,6.23,1.7,9,.36a71.57,71.57,0,0,0,10.27-6.55c3.8-2.82,9.72-5.25,9.78-9.53a4.4,4.4,0,0,1,.13-.76c.07-2.5,4.84-36.5,5.32-45.06.42-7.35-.48-19.84-.48-19.84l4.75-31.17s2.93,18.43,5.89,31c2.41,10.24,6.38,27.71,9.09,40.31h0c2.61,14.52,6.44,24.85,7.1,32.12.2,1.73,2.16,18.76,3,22.66s9.32,4,9.86-2.71C453.84,307.39,452.5,292.46,452.43,290.31Z" style="fill:#ffbda7"></path><path d="M371.93,305.54a3.71,3.71,0,0,0,.65,3.71c1.46,1.28,5.77,3.42,11.5,2.74s8.85-2.41,11.16-4.31,5.54-4.56,8.14-5.1c2.41-.5,6.09-1.74,6.87-2.47s.71-4,.71-4Z" style="fill:#263238"></path><path d="M409.1,283.33s.43,0,.57.78.33,3.56.69,5.06a26.89,26.89,0,0,1,.48,8c-.34,1.69-5.33,3-7.85,3.93a31.85,31.85,0,0,0-8.16,5,23.6,23.6,0,0,1-12.13,4.37c-5.69,0-9.36-1.56-10.48-3.62-1.38-2.54-.26-4,6.32-7,1.24-.56,5.62-3.09,7.11-4a34.27,34.27,0,0,0,4.49-3.26,26.7,26.7,0,0,0,2-2,9.08,9.08,0,0,0,1.68-2.09c.07-.18.13-.38.19-.56a9,9,0,0,0,.45-1.53c.11-.54.18-1.33.7-1.65a4.35,4.35,0,0,1,2.35-.25A17.68,17.68,0,0,1,400,285c1,.23,2.08.33,2.64,1.24a4.7,4.7,0,0,1,.51,2.37c0,.38,0,.77,0,1.15,0,.16-.07.46.16.39s.47-.63.55-.82c.19-.43.31-.88.51-1.3a6.66,6.66,0,0,1,.83-1.38,4.88,4.88,0,0,1,2-1.39c.73-.32,1.78-.74,1.78-.74S409.06,283.65,409.1,283.33Z" style="fill:#37474f"></path><path d="M377.48,300.44c8.23.65,10.77,5.77,11.09,8.92a19.31,19.31,0,0,1-5.87,1.17c-5.69,0-9.59-1.56-10.71-3.62C370.69,304.51,371.61,302.59,377.48,300.44Z" style="fill:#fafafa"></path><path d="M389.83,300.65a.42.42,0,0,0,.26-.08.41.41,0,0,0,.06-.57,9.69,9.69,0,0,0-7.42-3,.4.4,0,1,0,.08.8,9,9,0,0,1,6.71,2.72A.39.39,0,0,0,389.83,300.65Z" style="fill:#f0f0f0"></path><path d="M393.4,298.62a.42.42,0,0,0,.26-.08.41.41,0,0,0,.06-.57,9.65,9.65,0,0,0-7.42-3,.4.4,0,0,0-.36.44.4.4,0,0,0,.44.36,9,9,0,0,1,6.71,2.72A.4.4,0,0,0,393.4,298.62Z" style="fill:#f0f0f0"></path><path d="M396.72,296.3a.38.38,0,0,0,.25-.09.41.41,0,0,0,.07-.57,9.74,9.74,0,0,0-7.43-3,.41.41,0,0,0-.36.44.41.41,0,0,0,.44.37,9,9,0,0,1,6.72,2.72A.4.4,0,0,0,396.72,296.3Z" style="fill:#f0f0f0"></path><path d="M400,294a.38.38,0,0,0,.25-.09.4.4,0,0,0,.08-.56c-1.56-2-5.11-3.36-8.11-3.07a.4.4,0,0,0-.36.44.41.41,0,0,0,.44.37c2.7-.27,6,1,7.39,2.75A.41.41,0,0,0,400,294Z" style="fill:#f0f0f0"></path><path d="M441,317.6c.23,3.89.83,6.46,2.21,8.74s4,3,6.62,2.33,6-2.45,6.77-5.8,1.19-5.66.59-9.26Z" style="fill:#263238"></path><path d="M452.4,289.45c1.09.08,1,5.3,1.66,10.53.68,5.6,2.35,7.92,2.95,12.51.68,5.25-.19,7.59-2,10.77s-8.35,6.28-11.56,1.74c-2.61-3.71-2.72-7.82-2.48-13.05a118.45,118.45,0,0,0-.35-13.28c-.22-3.93-1.09-7.89-.14-8.33.07.58.14,1.31.22,1.88a9.32,9.32,0,0,0,.35,2.09c.11.29.35.6.45.12a3.16,3.16,0,0,0,0-1c-.16-1.45.57-1.57,1-1.68a47.69,47.69,0,0,1,5-.71c.83-.06,3.69-.19,4.06.29a3.14,3.14,0,0,1,.37,1.51c.09.79.28,1.37.3,1.12C452.26,293.43,452.42,289.78,452.4,289.45Z" style="fill:#37474f"></path><path d="M457.31,315.53a13.09,13.09,0,0,1-2,8c-1.84,3.17-8.87,6.29-12.08,1.75-1.6-2.26-2-4.94-2.24-7.66C442.88,314.09,454.28,312.55,457.31,315.53Z" style="fill:#fafafa"></path><path d="M443.32,311.89a.37.37,0,0,0,.14,0,18.52,18.52,0,0,1,10-1,.41.41,0,0,0,.18-.79,19,19,0,0,0-10.49,1,.39.39,0,0,0-.19.53A.4.4,0,0,0,443.32,311.89Z" style="fill:#f0f0f0"></path><path d="M453.17,307a.41.41,0,0,0,.09-.79c-4.87-1.64-10.27.83-10.47.94a.4.4,0,1,0,.37.71s5.31-2.42,9.84-.88A.52.52,0,0,0,453.17,307Z" style="fill:#f0f0f0"></path><path d="M453,303.29a.41.41,0,0,0,.34-.27.4.4,0,0,0-.24-.51c-5.36-1.92-10.48.79-10.67.9a.39.39,0,0,0-.14.55.4.4,0,0,0,.55.14c.05,0,5-2.62,10-.83A.55.55,0,0,0,453,303.29Z" style="fill:#f0f0f0"></path><path d="M452.74,299.66a.4.4,0,0,0,.33-.26.41.41,0,0,0-.23-.52c-5-1.88-10.54.89-10.75,1a.4.4,0,1,0,.4.69c.05,0,5.4-2.7,10.06-1A.42.42,0,0,0,452.74,299.66Z" style="fill:#ebebeb"></path><path d="M442.23,135.08c2.22,10.44,5.39,16.31,5.89,42.79s.41,33.88.51,37.07,2,8.9,3.6,24.63.23,34.46.23,34.46-1.66,2.53-7.67,3.06c-5.55.5-8.29-1.58-8.29-1.58s-7.61-30.62-9.71-40.09-8.22-40.61-8.22-40.61l-3.63,25.25s1.7,8.68,0,22.47-3.61,27.74-3.61,27.74-3.1,1.94-9.58,1.57a17.29,17.29,0,0,1-7.47-2s-4.71-41-4.71-56.65,1.55-54.46,3.87-78.15Z" style="fill:#455a64"></path><path d="M397.36,157.93c2.36,6.46,10.93,11,14.7,11.88l4.43,24.66-1.55,25.59,3.63-25.25-4.95-30.06S403.17,164,397.36,157.93Zm35.75-3.15c.62,2.54,1.18,5.09,1.77,7.64s1.17,5.11,1.8,7.68a51,51,0,0,0-.52-7.91c-.34-2.62-.83-5.21-1.43-7.79a69.08,69.08,0,0,0-2.26-7.6,37.11,37.11,0,0,0-3.39-7.18c.79,2.53,1.49,5,2.15,7.57S432.52,152.24,433.11,154.78Zm4.44-4.88c.85,1.53,1.66,3.08,2.48,4.63l2.4,4.73a21.08,21.08,0,0,0-1.21-5.25A33.8,33.8,0,0,0,439,149.1a38.85,38.85,0,0,0-2.9-4.51,27.81,27.81,0,0,0-3.58-4c.78,1.62,1.64,3.17,2.49,4.71S436.73,148.36,437.55,149.9Zm-3.93,71.37c-1.5-8.1-2.58-16.28-3.64-24.47s-2.05-16.4-3.19-24.6c.5,8.26,1.09,16.51,1.91,24.74s1.8,16.47,3.29,24.63,3.19,16.23,4.89,24.33,3.46,16.16,5.35,24.22q-1.87-12.27-4.07-24.47C436.72,237.51,435.17,229.36,433.62,221.27ZM396,193.76l1.35-21.56c-1.11,7.12-2,14.28-2.64,21.46s-1.26,14.35-1.28,21.63c.24,7.25.79,14.41,1.38,21.6s1.31,14.35,2.15,21.51q-.3-10.81-.85-21.6L395.57,226c-.18-3.59-.4-7.19-.47-10.75s.15-7.15.32-10.74S395.81,197.35,396,193.76Z" style="fill:#37474f"></path></g><g id="freepik--Top--inject-40"><path d="M446.34,97.53h0a15.09,15.09,0,0,1-15.09-15.09V44.77h2.51a12.59,12.59,0,0,1,12.58,12.59Z" style="fill:#37474f"></path><path d="M438.9,49.51a9.13,9.13,0,0,1,.41,1.92,5.31,5.31,0,0,1,0,1.26,4.25,4.25,0,0,1-4.14,3.43,6.45,6.45,0,0,1-5-2.67c-1.62-2.06-4-6.92-.89-8.65a6.39,6.39,0,0,1,6.66.55A8.13,8.13,0,0,1,438.9,49.51Z" style="fill:#4940FF"></path><path d="M438.9,49.51a9.13,9.13,0,0,1,.41,1.92,5.31,5.31,0,0,1,0,1.26,4.25,4.25,0,0,1-4.14,3.43,6.45,6.45,0,0,1-5-2.67c-1.62-2.06-4-6.92-.89-8.65a6.39,6.39,0,0,1,6.66.55A8.13,8.13,0,0,1,438.9,49.51Z" style="opacity:0.25"></path><path d="M446.63,152.62c-1.63-8.23-3.8-18.87-3.92-22.83-.27-8.28,1.72-14.55,2.41-19.2,1.51-10.12.4-19.07-2-21.06,0,0-6.86-1.58-9.1-2-1.79-.32-3.16-.53-5.5-1.1a33.52,33.52,0,0,0-12.1-.77c-1.09.11-3.81.84-6.93,1.3l-5.24.81s-2.23,1.37-5.59,7.38c-2.57,4.59-3.91,5.46-5,15.8-1.45,14.34-1.41,33.33-1.95,41C402.15,158.29,433.25,160.41,446.63,152.62Z" style="fill:#37474f"></path><g id="freepik--Head--inject-40"><path d="M402.86,66.06l-1.23-.38c-5.54-3-5.27-10.2-3.92-14,3-8.41,12.1-11.56,17.72-11.87,10.67-.58,15.88,2.17,17,7.7,1.44-.12,3.43,1,4.63,2.67,2.62,3.57,5.74,16-8.09,29.14Z" style="fill:#37474f"></path><path d="M430.87,75.55a5.64,5.64,0,0,0,5.19-2.43c2.17-3.17,2-6.18.74-8.06a4,4,0,0,0-5.24-1.14c-1.79,1.22-1.71,2.17-1.82,3.63s-3.32,1.31-4.16-3.88c-.79-4.85-.57-9.07-3-11.18-3.69-3.14-8.3-2.06-9.64-.06A4.83,4.83,0,0,0,406.26,51c-2.33,1.37-4.15,4.23-4.57,13.51-.34,7.52,1.23,13.9,3.9,16.18,1.55,1.32,3.83,2.17,7.37,2.19l-.13,4.16s-4.79,9-4.46,17.12c0,0,1.95-1.35,10.74-9C425,90.05,428.66,87,428.66,87l-.32-13.53A3.47,3.47,0,0,0,430.87,75.55Z" style="fill:#ffbda7"></path><path d="M404.19,59.6l3.52-1.19a1.78,1.78,0,0,0-2.3-1.2A2,2,0,0,0,404.19,59.6Z" style="fill:#263238"></path><path d="M415.67,58.6l3.57,1.77a1.91,1.91,0,0,0-.83-2.65A2.09,2.09,0,0,0,415.67,58.6Z" style="fill:#263238"></path><path d="M418.13,63.39a1.52,1.52,0,1,1-1.52-1.52A1.52,1.52,0,0,1,418.13,63.39Z" style="fill:#263238"></path><path d="M407.53,62.93A1.52,1.52,0,1,1,406,61.41,1.52,1.52,0,0,1,407.53,62.93Z" style="fill:#263238"></path><path d="M421.69,53.12c.83,1.06,1.44,2.8,1.32,6.6a12.4,12.4,0,0,0,1.12,5.93c.93,1.92,1.89,3.07,3.94,3.42a7.48,7.48,0,0,0,3.7-.37c.73-.34,2.77-1.78,2.53-3.89a4.49,4.49,0,0,1-1.5,1.06,4.28,4.28,0,0,1-1.36.32A4.12,4.12,0,0,1,428,64.26c-1.38-2.05-1.29-4.8-1.71-7.14-.54-3-1.05-5.49-3.74-7-3.18-1.75-8.91-1-9.6,2.27A6.3,6.3,0,0,1,421.69,53.12Z" style="fill:#37474f"></path><polygon points="412.12 61.47 411.72 70.78 406.57 69.21 412.12 61.47" style="fill:#f0997a"></polygon><path d="M416,73a2.38,2.38,0,0,0-1.21-.24,6,6,0,0,0-1.26.16,3.82,3.82,0,0,0-1.87,1,.69.69,0,0,0-.23.33c-.06.26.18.25.37.17s.24-.13.36-.19l.56-.22a6.05,6.05,0,0,1,1.09-.36,6.68,6.68,0,0,1,1.08-.15h.58c.2,0,.47,0,.58-.19A.23.23,0,0,0,416,73Z" style="fill:#b16668"></path><path d="M413,82.92a24.89,24.89,0,0,0,9.41-2.37c2.52-1.3,3.06-2.9,4.31-5.27,0,0-.63,5-3.13,6.65-3.79,2.47-10.65,3-10.65,3Z" style="fill:#f0997a"></path></g><g id="freepik--Hand--inject-40"><path d="M443.16,89.53c6.53,1.09,8.72,3.11,11.42,10.17,2.61,6.83,8.64,22.21,6.85,32.53-1.09,6.3-17-9.52-17-9.52l-7.6-17.54S437.66,89.53,443.16,89.53Z" style="fill:#ffbda7"></path><path d="M438.75,94.47a46,46,0,0,0-1.9,10.7l7.6,17.54s2.29,2.27,5.19,4.75l10.8-5.59c-.15-2.68-6.31-10.5-10.12-14.5C447.5,104.41,441.69,97.59,438.75,94.47Z" style="fill:#f0997a"></path><path d="M441.35,98.18a19.9,19.9,0,0,1-3.58-7c-.73-2.94-3-5.65-3.84-6.77s-2.5-2.76-3.8-4.32-1.69-2-3.56-2.32C424,77.38,422,77,421,77.28s-1,1-.1,1.86,2.72,1.11,3.29,1.29,1.83.71,1.83.71l2.38,3.51a35.22,35.22,0,0,0-4.83,1.18c-.8.43-1.47,2.48-1.13,3.61a2.18,2.18,0,0,0-.9,2.46s-.9,1.18-.28,2.15a16.14,16.14,0,0,0,2.4,2.67,6.68,6.68,0,0,0,2.44.53,17.8,17.8,0,0,0,3.05,3.54c1.38,1,2.29,1,3.81,3.11Z" style="fill:#ffbda7"></path><path d="M426.55,85c-1-.41-1.17-1.05-2.07-.71s-.56,1.37-.56,1.37Z" style="fill:#f0997a"></path><path d="M422.44,89.53a9.2,9.2,0,0,1,2-1.27c.66-.32,2-.81,2-.81a10.26,10.26,0,0,0-2.81.66,7.84,7.84,0,0,0-1.32.67,2.7,2.7,0,0,0,.09.66Z" style="fill:#b16668"></path><path d="M422.31,90.89a7.2,7.2,0,0,0-.93.47,2.8,2.8,0,0,0,.16.65,8.05,8.05,0,0,1,2.54-1.58A7.79,7.79,0,0,0,422.31,90.89Z" style="fill:#b16668"></path><path d="M426.43,97.78a19.11,19.11,0,0,0-2-3.18,1.45,1.45,0,0,0-2-.19c-.26.39,1.05.34,1.44.51A12.32,12.32,0,0,1,426.43,97.78Z" style="fill:#b16668"></path><path d="M429.47,84.55s-.74-1-2.06-2.71-1.24-1.41-2.53-1.67-3.72-.68-4.38-1.46a3.41,3.41,0,0,0,.37.43c.85.87,2.72,1.11,3.29,1.29s1.83.71,1.83.71l2.44,3.61Z" style="fill:#f0997a"></path><path d="M441.35,98.18c4.32,5.21,16,17.74,18.65,22.72,1.86,3.45,2.33,11.47.43,14.38s-7.33,1.69-11.73-2.17c-3.8-3.34-7-11.36-9.71-17.06s-6.06-12.15-6.06-12.15Z" style="fill:#ffbda7"></path><path d="M438.78,94a14.49,14.49,0,0,1-.84-2.31,12.89,12.89,0,0,0-.79-2.34,22.7,22.7,0,0,0-2.63-4.19,35,35,0,0,0-3.2-3.77c-.56-.61-1.08-1.23-1.61-1.87a4.29,4.29,0,0,0-2-1.5,21.4,21.4,0,0,0-2.43-.5c-.82-.14-1.63-.28-2.45-.37a8.71,8.71,0,0,0-1.25-.05,2.14,2.14,0,0,0-1.23.39.73.73,0,0,0-.27.65,1.44,1.44,0,0,0,.26.62,3,3,0,0,0,.92.88,7.54,7.54,0,0,0,2.36.82,11.77,11.77,0,0,1,2.26.82l2.27,3.32c-1.4.28-2.81.56-4.2,1a3,3,0,0,0-.53.22,1.56,1.56,0,0,0-.43.42,4.23,4.23,0,0,0-.51,1,4,4,0,0,0-.18,2.19,2.75,2.75,0,0,0-.88,1.09,1.93,1.93,0,0,0-.15.72,2,2,0,0,0,.13.68,2.14,2.14,0,0,0-.36,2,9.83,9.83,0,0,0,1.31,1.68l.74.75A2.62,2.62,0,0,0,424,97a8.6,8.6,0,0,0,2.07.33c.45.66.93,1.29,1.44,1.9a9.29,9.29,0,0,0,1.74,1.69c.65.47,1.41.78,2.06,1.25a7.63,7.63,0,0,1,1.65,1.75,7.42,7.42,0,0,0-1.63-1.77c-.65-.49-1.4-.81-2.05-1.29a9.32,9.32,0,0,1-1.69-1.69,22.53,22.53,0,0,1-1.43-1.94l0,0h0a8.29,8.29,0,0,1-2.05-.34,2.23,2.23,0,0,1-.81-.61c-.25-.24-.49-.49-.73-.75a9.48,9.48,0,0,1-1.27-1.64,2,2,0,0,1,.37-1.89l0,0,0,0a1.84,1.84,0,0,1-.12-.66,1.8,1.8,0,0,1,.14-.65,2.57,2.57,0,0,1,.86-1l0,0,0-.07a3.76,3.76,0,0,1,.19-2.14c.25-.67.6-1.39,1.35-1.53,1.41-.42,2.89-.69,4.35-1l.17,0-.1-.14-2.37-3.52,0,0h0a13.61,13.61,0,0,0-2.34-.85,7.66,7.66,0,0,1-2.29-.78,2.73,2.73,0,0,1-.85-.81c-.23-.31-.34-.73,0-1a3.37,3.37,0,0,1,2.3-.29c.82.08,1.63.22,2.44.35a21,21,0,0,1,2.41.48,4.12,4.12,0,0,1,1.9,1.44c.52.62,1.06,1.26,1.62,1.86a36.82,36.82,0,0,1,3.21,3.74A23.07,23.07,0,0,1,437,89.37a12.53,12.53,0,0,1,.82,2.32,14.07,14.07,0,0,0,.88,2.31,26.63,26.63,0,0,0,2.62,4.18A27.87,27.87,0,0,1,438.78,94Z" style="fill:#b16668"></path></g></g></g></g><g id="freepik--Device--inject-40"><g id="freepik--device--inject-40"><g id="freepik--Mobile--inject-40"><path d="M106.93,408.8l103,59.45a11.1,11.1,0,0,0,10.75.2L428,348.73c2.28-1.32,5.85-4.28,5.83-7.94,0-2,.08-4,.08-5,0-3.32-2.64-7.53-5.91-9.42L325.41,267.14a13.11,13.11,0,0,0-11.83,0L106.93,386.45c-3.27,1.89-5.92,6.1-5.92,9.42,0,.26,0,3.48,0,3.79C101.06,404.25,103.92,407.06,106.93,408.8Z" style="fill:#37474f"></path><path d="M209.92,468.25l-103-59.45c-2.67-1.54-5.87-4-5.87-9.14,0-.86,0-3.18,0-3.79,0-3.32,2.65-7.53,5.92-9.42l108.6-62.7v146A11,11,0,0,1,209.92,468.25Z" style="fill:#263238"></path><path d="M212.37,454.15a11.54,11.54,0,0,0,10.43,0l205.25-118.5c4.41-2.54,4.41-6.71,0-9.26L325.42,267.14a13.11,13.11,0,0,0-11.83,0L106.94,386.45c-3.26,1.88-3.26,4.95,0,6.83Z" style="fill:#455a64"></path><path d="M222.34,442.22a12.43,12.43,0,0,0,11.24,0l176.61-102c3.1-1.8,3.1-4.7,0-6.5L313.64,278a12.5,12.5,0,0,0-11.24,0L125.79,380c-3.09,1.78-3.09,4.7,0,6.49Z" style="fill:#37474f"></path><path d="M308.36,276.71a11.4,11.4,0,0,1,5.28,1.32l96.55,55.73c3.1,1.8,3.1,4.7,0,6.5l-19.14,11-82.69-52.8Z" style="fill:#263238"></path><path d="M374.9,307.7l-17.11-9.88c-1-.59-1.08-1.52-.12-2.07a4,4,0,0,1,3.58.07l17.11,9.87c1,.59,1.08,1.52.12,2.07A3.93,3.93,0,0,1,374.9,307.7Z" style="fill:#263238"></path><path d="M345.51,290.76a1.06,1.06,0,0,1,0-2,3.79,3.79,0,0,1,3.47,0,1.05,1.05,0,0,1,0,2A3.85,3.85,0,0,1,345.51,290.76Z" style="fill:#263238"></path><path d="M338.58,286.75a1.05,1.05,0,0,1,0-2,3.79,3.79,0,0,1,3.47,0,1.06,1.06,0,0,1,0,2A3.86,3.86,0,0,1,338.58,286.75Z" style="fill:#263238"></path><path d="M394.07,318.79a1.06,1.06,0,0,1,0-2,3.86,3.86,0,0,1,3.47,0,1.07,1.07,0,0,1,0,2A3.86,3.86,0,0,1,394.07,318.79Z" style="fill:#263238"></path><path d="M387.13,314.78c-1-.56-1-1.45,0-2a3.82,3.82,0,0,1,3.47,0,1.06,1.06,0,0,1,0,2A3.86,3.86,0,0,1,387.13,314.78Z" style="fill:#263238"></path></g><g id="freepik--window--inject-40"><path d="M302.33,282.25a12.52,12.52,0,0,1,11.25,0L410.12,338a6,6,0,0,1,1.47,1.18,6.26,6.26,0,0,1-1.4,1.1l-176.61,102a12.43,12.43,0,0,1-11.24,0l-96.55-55.73a5.84,5.84,0,0,1-1.45-1.17,5.49,5.49,0,0,1,1.39-1.1Z" style="fill:#fafafa"></path><g id="freepik--window--inject-40"><path d="M299.52,293.84a.94.94,0,0,1-.18-.41l-.29-2.32a.44.44,0,0,1,.48-.52l4,.17a1,1,0,0,1,.82.68.44.44,0,0,1-.45.62l-3.47-.14.22,1.78a.45.45,0,0,1-.59.5A1,1,0,0,1,299.52,293.84Z" style="fill:#455a64"></path><path d="M381.39,338.4a2.44,2.44,0,0,1-2.21-.09c-.66-.38-.73-.95-.16-1.28a2.46,2.46,0,0,1,2.22.09C381.89,337.5,382,338.07,381.39,338.4Z" style="fill:#455a64"></path><path d="M386.41,341.29a2.46,2.46,0,0,1-2.22-.09c-.66-.38-.73-.95-.16-1.28a2.49,2.49,0,0,1,2.22.1C386.9,340.39,387,341,386.41,341.29Z" style="fill:#455a64"></path><path d="M391.42,344.19a2.49,2.49,0,0,1-2.22-.09c-.66-.38-.73-1-.16-1.28a2.46,2.46,0,0,1,2.22.09C391.91,343.29,392,343.86,391.42,344.19Z" style="fill:#455a64"></path><path d="M319.16,327.63a6.93,6.93,0,0,1-1.32-2.59c-.61-2.47.62-4.8,3.38-6.39,5.16-3,14.21-2.6,20.18.85,2.67,1.54,4.42,3.52,4.93,5.58.61,2.47-.62,4.8-3.38,6.4-5.16,3-14.21,2.59-20.18-.85A12.63,12.63,0,0,1,319.16,327.63Zm25.43-4.89a11.57,11.57,0,0,0-3.35-2.78c-5.79-3.34-14.59-3.7-19.62-.8-2.6,1.51-3.77,3.67-3.21,5.93.45,1.85,2.06,3.65,4.52,5.07,5.79,3.35,14.59,3.71,19.62.81,2.61-1.51,3.78-3.67,3.22-5.93A6.08,6.08,0,0,0,344.59,322.74Z" style="fill:#4940FF"></path><path d="M319.16,327.64a6.63,6.63,0,0,1-1.42-3.14.21.21,0,0,1,.1-.21l.31-.14a12.55,12.55,0,0,1,10.4.77l3.46,2a5.56,5.56,0,0,1,2.72,3,3,3,0,0,1-1.31,3.33l-.24.17a.15.15,0,0,1-.13,0,23,23,0,0,1-10.28-2.83h0A12.66,12.66,0,0,1,319.16,327.64Zm-.82-2.88c.34,2,2,3.89,4.59,5.4h0a22.44,22.44,0,0,0,9.87,2.74l.19-.14a2.6,2.6,0,0,0,1.18-2.86,4.71,4.71,0,0,0-2.32-2.52l-3.46-2a11.91,11.91,0,0,0-9.87-.7Z" style="fill:#4940FF"></path><path d="M329.76,324.4a3.12,3.12,0,0,1-.58-1.15,2.46,2.46,0,0,1,1.43-2.76c2.16-1.25,5.95-1.09,8.45.36a4.24,4.24,0,0,1,2.15,2.44,2.47,2.47,0,0,1-1.44,2.76c-2.16,1.25-5.95,1.09-8.45-.36A5.69,5.69,0,0,1,329.76,324.4Zm10.44-2a4.35,4.35,0,0,0-1.3-1.08C336.58,320,333,319.83,331,321a2.11,2.11,0,0,0-1.27,2.3,3.43,3.43,0,0,0,1.74,1.93c2.33,1.34,5.86,1.48,7.89.31a2.09,2.09,0,0,0,1.27-2.29A2.27,2.27,0,0,0,340.2,322.39Z" style="fill:#4940FF"></path><path d="M307.18,325.16a4.26,4.26,0,0,1,1,.73,1.81,1.81,0,0,1,.43.68.77.77,0,0,1,0,.56.85.85,0,0,1-.31.39.36.36,0,0,1-.24.05.48.48,0,0,1-.24-.07l-.66-.38a.4.4,0,0,1-.19-.17.29.29,0,0,1,0-.16.6.6,0,0,0-.07-.46,1.91,1.91,0,0,0-.7-.58,4.9,4.9,0,0,0-.52-.24,2.65,2.65,0,0,0-.51-.15,2,2,0,0,0-.47,0,.81.81,0,0,0-.37.11.4.4,0,0,0-.22.23.35.35,0,0,0,.1.29,2.93,2.93,0,0,0,.4.41c.18.17.42.37.7.6a7,7,0,0,1,.72.71,1.42,1.42,0,0,1,.33.59.62.62,0,0,1-.08.48,1.27,1.27,0,0,1-.46.42,2.55,2.55,0,0,1-.87.29,3.9,3.9,0,0,1-1.08,0,6.61,6.61,0,0,1-1.21-.29,6.9,6.9,0,0,1-1.27-.59,4.33,4.33,0,0,1-.9-.64,2.3,2.3,0,0,1-.54-.68.89.89,0,0,1-.09-.63.84.84,0,0,1,.4-.53.3.3,0,0,1,.22-.05.61.61,0,0,1,.25.07l.66.38c.11.07.17.12.19.17a.17.17,0,0,1,0,.17.79.79,0,0,0-.05.22.42.42,0,0,0,.06.25,1.74,1.74,0,0,0,.27.31,3.89,3.89,0,0,0,.55.38l.58.29a3.63,3.63,0,0,0,.58.2,2.62,2.62,0,0,0,.54.06.86.86,0,0,0,.43-.11c.12-.07.18-.15.16-.25a.69.69,0,0,0-.2-.34,5,5,0,0,0-.51-.48l-.73-.63a4.68,4.68,0,0,1-.59-.61,1.2,1.2,0,0,1-.25-.53.63.63,0,0,1,.12-.47,1.71,1.71,0,0,1,.52-.43,2.42,2.42,0,0,1,.86-.28,4.58,4.58,0,0,1,1.05,0,6.11,6.11,0,0,1,1.13.26A6.56,6.56,0,0,1,307.18,325.16Z" style="fill:#455a64"></path><path d="M312,327.92a.22.22,0,0,1,.12.14.15.15,0,0,1-.08.14l-.64.36a.41.41,0,0,1-.23.05.57.57,0,0,1-.24-.06l-.81-.47a.22.22,0,0,1-.12-.14c0-.06,0-.1.08-.14l.64-.36a.39.39,0,0,1,.23-.05.48.48,0,0,1,.24.07Zm-5.36,3.34a.41.41,0,0,1-.23.05.61.61,0,0,1-.25-.07l-.71-.41a.22.22,0,0,1-.12-.14c0-.06,0-.1.08-.14l3.8-2.19a.41.41,0,0,1,.23-.05.61.61,0,0,1,.25.07l.72.41a.24.24,0,0,1,.11.14c0,.06,0,.1-.08.14Z" style="fill:#455a64"></path><path d="M309,333.85a2.88,2.88,0,0,0,.46.2,2.36,2.36,0,0,0,.54.12,2.18,2.18,0,0,0,.57,0,1.33,1.33,0,0,0,.52-.17l.3-.18a2.43,2.43,0,0,1-.36,0,2.86,2.86,0,0,1-.45-.08,4.45,4.45,0,0,1-.53-.16,3.67,3.67,0,0,1-.57-.27,2.19,2.19,0,0,1-.69-.59,1.06,1.06,0,0,1-.23-.62,1,1,0,0,1,.19-.6,1.84,1.84,0,0,1,.55-.52l.27-.17.3-.16a3.73,3.73,0,0,1,.89-.31,4.48,4.48,0,0,1,1-.11,4.41,4.41,0,0,1,1.07.13,3.74,3.74,0,0,1,1,.4,2.73,2.73,0,0,1,.47.33,1.53,1.53,0,0,1,.28.31.74.74,0,0,1,.14.26.58.58,0,0,1,0,.2l.19-.1a.39.39,0,0,1,.23-.05.48.48,0,0,1,.24.07l.72.41c.07,0,.11.09.11.14a.12.12,0,0,1-.08.13l-3.83,2.21a3.65,3.65,0,0,1-2.12.5,5.35,5.35,0,0,1-2.26-.73,3.59,3.59,0,0,1-.78-.58,1.88,1.88,0,0,1-.42-.58.8.8,0,0,1-.06-.52.66.66,0,0,1,.28-.39.36.36,0,0,1,.22,0,.41.41,0,0,1,.25.07l.64.37c.09.05.14.1.15.17a1.24,1.24,0,0,1,0,.18.48.48,0,0,0,.1.32A2.15,2.15,0,0,0,309,333.85Zm2-2.49a2.23,2.23,0,0,0-.46.27q-.48.33-.39.66a1.07,1.07,0,0,0,.55.58,2.38,2.38,0,0,0,1,.31,2.09,2.09,0,0,0,1.05-.18,2,2,0,0,0,.32-.17,1.76,1.76,0,0,0,.3-.19.57.57,0,0,0,.3-.59,1,1,0,0,0-.53-.59,2.55,2.55,0,0,0-1-.32A2.25,2.25,0,0,0,311,331.36Z" style="fill:#455a64"></path><path d="M318.32,338a.41.41,0,0,1-.23,0,.43.43,0,0,1-.24-.06l-.72-.42a.2.2,0,0,1-.12-.14.14.14,0,0,1,.08-.13l2.08-1.2c.32-.19.5-.39.52-.6s-.16-.43-.52-.64a2.13,2.13,0,0,0-1.08-.29,2.17,2.17,0,0,0-1.07.29l-2.07,1.2a.41.41,0,0,1-.23,0,.49.49,0,0,1-.25-.06l-.72-.42a.19.19,0,0,1-.11-.14.12.12,0,0,1,.08-.13l3.8-2.2a.41.41,0,0,1,.23,0,.49.49,0,0,1,.25.06l.72.42a.24.24,0,0,1,.11.14.14.14,0,0,1-.08.13l-.19.11a5.07,5.07,0,0,1,.93.13,3.41,3.41,0,0,1,.92.37,2.56,2.56,0,0,1,.8.65.82.82,0,0,1,.21.6.93.93,0,0,1-.27.54,3.05,3.05,0,0,1-.64.48Z" style="fill:#455a64"></path><path d="M328.31,337.37a.22.22,0,0,1,.12.14.13.13,0,0,1-.08.13l-.64.37a.41.41,0,0,1-.23.05.61.61,0,0,1-.24-.07l-.81-.47a.2.2,0,0,1-.12-.14.14.14,0,0,1,.08-.13l.64-.37a.41.41,0,0,1,.23,0,.48.48,0,0,1,.24.06ZM323,340.71a.41.41,0,0,1-.23,0,.49.49,0,0,1-.25-.06l-.71-.42a.2.2,0,0,1-.12-.14.14.14,0,0,1,.08-.13l3.8-2.2a.45.45,0,0,1,.24,0,.48.48,0,0,1,.24.06l.72.42a.21.21,0,0,1,.11.14.12.12,0,0,1-.08.13Z" style="fill:#455a64"></path><path d="M328.85,344.11a.41.41,0,0,1-.23.05.49.49,0,0,1-.25-.07l-.71-.41a.22.22,0,0,1-.12-.14.12.12,0,0,1,.08-.13l2.07-1.2c.33-.19.5-.39.52-.61s-.15-.42-.51-.63a2.19,2.19,0,0,0-1.08-.29,2.07,2.07,0,0,0-1.07.29l-2.08,1.19a.33.33,0,0,1-.23,0,.48.48,0,0,1-.24-.06l-.72-.42a.19.19,0,0,1-.11-.14.12.12,0,0,1,.08-.13l3.8-2.2a.41.41,0,0,1,.23,0,.49.49,0,0,1,.25.06l.71.42a.2.2,0,0,1,.12.14.15.15,0,0,1-.08.13l-.19.11a4.25,4.25,0,0,1,.92.13,3.47,3.47,0,0,1,.93.37,2.7,2.7,0,0,1,.8.64.9.9,0,0,1,.21.6.91.91,0,0,1-.28.55,2.74,2.74,0,0,1-.63.48Z" style="fill:#455a64"></path><path d="M262.51,321.75a.18.18,0,0,1,.07.09.14.14,0,0,1-.05.09l-.19.1a.33.33,0,0,1-.15,0,.24.24,0,0,1-.15,0l-2.41-1.39a.16.16,0,0,1-.08-.09s0-.06.06-.09l3.34-1.93a.2.2,0,0,1,.14,0,.29.29,0,0,1,.16,0l2.36,1.36s.07.06.07.09,0,.06-.05.09l-.18.1a.19.19,0,0,1-.15,0,.24.24,0,0,1-.15,0l-2-1.13-1.09.63,1.82,1.06a.12.12,0,0,1,.08.09.09.09,0,0,1-.06.08l-.18.11a.3.3,0,0,1-.3,0l-1.83-1.05-1.13.65Z" style="fill:#455a64"></path><path d="M264.29,321.78a.09.09,0,0,1-.07-.09s0-.06,0-.08l.16-.09a.19.19,0,0,1,.15,0,.24.24,0,0,1,.15,0l1.76,1a.16.16,0,0,1,.08.09.11.11,0,0,1-.05.09l-.17.09a.17.17,0,0,1-.14,0,.27.27,0,0,1-.16,0Z" style="fill:#455a64"></path><path d="M268.67,323.09h.25l.28,0a1.35,1.35,0,0,1,.3.08,1.3,1.3,0,0,1,.32.15,1.42,1.42,0,0,1,.49.41.46.46,0,0,1,0,.41h.34l.35,0a1.61,1.61,0,0,1,.36.1,2.39,2.39,0,0,1,.37.17c.41.24.59.47.57.69s-.22.45-.58.66l-1.43.82a.24.24,0,0,1-.15,0,.29.29,0,0,1-.16,0l-.22-.13a.11.11,0,0,1-.07-.09.08.08,0,0,1,0-.08l1.38-.8c.27-.15.4-.3.41-.44s-.11-.28-.34-.41a1.38,1.38,0,0,0-.69-.19,1.34,1.34,0,0,0-.75.21l-1.42.82a.22.22,0,0,1-.14,0,.27.27,0,0,1-.16,0l-.22-.13s-.07-.05-.07-.08a.08.08,0,0,1,.05-.09l1.38-.8c.27-.15.4-.3.41-.44s-.11-.28-.34-.41a1.38,1.38,0,0,0-.69-.19,1.42,1.42,0,0,0-.75.21l-1.42.82a.33.33,0,0,1-.15,0l-.15,0-.22-.13a.16.16,0,0,1-.08-.09s0-.06.06-.09l2.41-1.39a.26.26,0,0,1,.14,0l.16,0,.22.13a.18.18,0,0,1,.07.09.1.1,0,0,1-.05.09Z" style="fill:#455a64"></path><path d="M271.51,326.7a1.41,1.41,0,0,1,.45-.15,2.35,2.35,0,0,1,.53,0,3.23,3.23,0,0,1,.57.12c.19.06.38.14.58.22l1,.42.06,0c.18-.1.24-.22.2-.35a.8.8,0,0,0-.37-.36,1.3,1.3,0,0,0-.48-.18,2,2,0,0,0-.42,0h-.14l-.13-.06-.18-.1s-.07-.06-.07-.1,0-.06.05-.08a1,1,0,0,1,.34-.07,2.43,2.43,0,0,1,.46,0l.52.12a2.81,2.81,0,0,1,.5.22,1.68,1.68,0,0,1,.43.33.76.76,0,0,1,.2.34.45.45,0,0,1-.07.33.87.87,0,0,1-.34.31l-1.58.91a.34.34,0,0,1-.3,0l-.22-.13a.12.12,0,0,1-.08-.09.09.09,0,0,1,.06-.08l.21-.12a1.93,1.93,0,0,1-.34,0,2.7,2.7,0,0,1-.39-.08,2.43,2.43,0,0,1-.38-.13,1.59,1.59,0,0,1-.32-.16,1.42,1.42,0,0,1-.37-.27.69.69,0,0,1-.18-.28.33.33,0,0,1,0-.26A.5.5,0,0,1,271.51,326.7Zm.81.8a1.82,1.82,0,0,0,.45.2,2.57,2.57,0,0,0,.47.08,1.61,1.61,0,0,0,.44,0,1.49,1.49,0,0,0,.37-.14l.13-.08-.8-.35a4.45,4.45,0,0,0-.76-.25.77.77,0,0,0-.52.05.2.2,0,0,0-.08.08.22.22,0,0,0,0,.12.33.33,0,0,0,.09.14A.91.91,0,0,0,272.32,327.5Z" style="fill:#455a64"></path><path d="M278.15,327.58a.17.17,0,0,1-.14,0,.25.25,0,0,1-.16,0l-.34-.19s-.07-.06-.07-.09a.08.08,0,0,1,.05-.09l.29-.17a.33.33,0,0,1,.15,0l.15,0,.34.2a.16.16,0,0,1,.08.09.1.1,0,0,1-.05.08ZM275,329.34a.26.26,0,0,1-.14,0,.42.42,0,0,1-.16,0l-.22-.13s-.07-.06-.07-.09,0-.06.05-.09l2.41-1.39a.3.3,0,0,1,.3,0l.22.12c.05,0,.07.06.07.09a.08.08,0,0,1-.05.09Z" style="fill:#455a64"></path><path d="M276.43,330.17a.32.32,0,0,1-.14,0,.42.42,0,0,1-.16,0l-.22-.13s-.07-.06-.07-.09,0-.06.05-.08l3.39-2a.34.34,0,0,1,.3,0l.22.13a.09.09,0,0,1,.07.09s0,.06-.05.08Z" style="fill:#455a64"></path><path d="M256,327.62h.26l.27,0a1.67,1.67,0,0,1,.3.08,2.3,2.3,0,0,1,.32.15,1.25,1.25,0,0,1,.49.42.43.43,0,0,1,0,.41H258a2.07,2.07,0,0,1,.35,0l.36.1a1.85,1.85,0,0,1,.38.18c.4.23.59.46.56.69s-.22.44-.58.65l-1.43.83a.3.3,0,0,1-.3,0l-.22-.12c-.05,0-.07-.06-.07-.09s0-.06.05-.09l1.38-.79c.26-.16.4-.3.4-.45s-.1-.27-.33-.41a1.49,1.49,0,0,0-.69-.19,1.56,1.56,0,0,0-.76.21l-1.41.82a.34.34,0,0,1-.3,0l-.23-.13a.18.18,0,0,1-.07-.09.08.08,0,0,1,.05-.08l1.38-.8c.27-.15.41-.3.41-.44s-.11-.28-.34-.42a1.49,1.49,0,0,0-.69-.19,1.52,1.52,0,0,0-.75.21l-1.42.82a.26.26,0,0,1-.14,0,.29.29,0,0,1-.16,0l-.22-.13a.11.11,0,0,1-.07-.09s0-.06,0-.08l2.41-1.39a.33.33,0,0,1,.15,0,.26.26,0,0,1,.15,0l.22.13a.09.09,0,0,1,.07.09s0,.06-.05.08Z" style="fill:#e0e0e0"></path><path d="M258.35,332.72h-.14a.29.29,0,0,1-.16,0l-.24-.14a.09.09,0,0,1-.06-.08.07.07,0,0,1,0-.08h0l1.66-.3,1.09-2s0,0,0,0a.23.23,0,0,1,.13,0,.2.2,0,0,1,.13,0l.25.14c.05,0,.07.06.07.09a.19.19,0,0,1,0,.08l-.84,1.55,2.69-.48a.31.31,0,0,1,.14,0,.24.24,0,0,1,.15,0l.25.14a.13.13,0,0,1,.07.08s0,.05-.05.07l0,0Z" style="fill:#e0e0e0"></path><path d="M264.52,335.13a.29.29,0,0,1-.14,0l-.16,0L264,335s-.07-.06-.07-.09,0-.06.05-.08l1.36-.79c.27-.16.39-.31.38-.47s-.16-.32-.42-.47a1.66,1.66,0,0,0-.8-.24,1.56,1.56,0,0,0-.83.21l-1.36.79a.34.34,0,0,1-.3,0l-.23-.13a.18.18,0,0,1-.07-.09.1.1,0,0,1,.05-.08l2.41-1.4a.39.39,0,0,1,.3,0l.22.12a.16.16,0,0,1,.08.09.11.11,0,0,1,0,.09l-.16.09a2,2,0,0,1,.57.06,2.1,2.1,0,0,1,.7.27,1.65,1.65,0,0,1,.44.35.61.61,0,0,1,.18.37.46.46,0,0,1-.1.36,1.1,1.1,0,0,1-.39.33Z" style="fill:#e0e0e0"></path><path d="M265.71,335.19a1.14,1.14,0,0,1,.45-.15,1.57,1.57,0,0,1,.53,0,3.23,3.23,0,0,1,.57.12l.57.21,1,.42.07,0c.18-.1.24-.21.2-.34a.81.81,0,0,0-.37-.37,1.36,1.36,0,0,0-.48-.18,3.1,3.1,0,0,0-.43,0,.28.28,0,0,1-.13,0l-.13-.06-.18-.1a.11.11,0,0,1-.07-.09s0-.06.05-.08a.94.94,0,0,1,.34-.08,1.87,1.87,0,0,1,.46,0,2.59,2.59,0,0,1,.52.12,2.71,2.71,0,0,1,.49.22,2,2,0,0,1,.44.32.76.76,0,0,1,.19.35.4.4,0,0,1-.06.33.91.91,0,0,1-.35.31l-1.57.91a.3.3,0,0,1-.3,0l-.23-.12a.18.18,0,0,1-.07-.09.09.09,0,0,1,.05-.09l.21-.12a1,1,0,0,1-.34,0,2.79,2.79,0,0,1-.38-.07l-.38-.13a3.42,3.42,0,0,1-.33-.16,1.88,1.88,0,0,1-.37-.28.66.66,0,0,1-.17-.28.31.31,0,0,1,0-.25A.5.5,0,0,1,265.71,335.19Zm.81.8a1.79,1.79,0,0,0,.45.19,2,2,0,0,0,.46.09,1.58,1.58,0,0,0,.44,0,1,1,0,0,0,.38-.14l.13-.07-.8-.35a3.92,3.92,0,0,0-.76-.25.77.77,0,0,0-.52,0,.14.14,0,0,0-.08.09.14.14,0,0,0,0,.11.3.3,0,0,0,.09.15A1,1,0,0,0,266.52,336Z" style="fill:#e0e0e0"></path><path d="M271.44,336.53h.25l.28,0,.3.08.32.15a1.25,1.25,0,0,1,.49.42.43.43,0,0,1,0,.41h.34a1.45,1.45,0,0,1,.35,0l.36.09a3.17,3.17,0,0,1,.38.18c.4.23.59.46.56.69s-.22.44-.58.65l-1.43.83a.33.33,0,0,1-.15,0l-.15,0-.23-.13a.18.18,0,0,1-.07-.09.09.09,0,0,1,.05-.08l1.38-.8c.27-.16.4-.3.41-.44s-.1-.28-.34-.42a1.49,1.49,0,0,0-.69-.19,1.52,1.52,0,0,0-.75.21l-1.42.82a.26.26,0,0,1-.14,0,.42.42,0,0,1-.16,0l-.22-.13a.11.11,0,0,1-.07-.09.08.08,0,0,1,.05-.08l1.38-.8c.27-.15.4-.3.41-.44s-.11-.28-.34-.41a1.28,1.28,0,0,0-.69-.19,1.34,1.34,0,0,0-.75.21l-1.42.81a.17.17,0,0,1-.14,0,.27.27,0,0,1-.16,0l-.22-.13a.11.11,0,0,1-.07-.09s0-.06,0-.08l2.41-1.39a.29.29,0,0,1,.14,0,.42.42,0,0,1,.16,0l.22.13a.11.11,0,0,1,.07.09s0,.06,0,.08Z" style="fill:#e0e0e0"></path><path d="M275.28,339.65a2.62,2.62,0,0,1,.58-.18,3.39,3.39,0,0,1,.64-.05,3,3,0,0,1,.66.1,2.89,2.89,0,0,1,.63.26,2,2,0,0,1,.48.39.62.62,0,0,1,.17.4.64.64,0,0,1-.13.4,1.42,1.42,0,0,1-.45.36l-.14.08a.24.24,0,0,1-.15,0,.33.33,0,0,1-.15-.05l-2.06-1.18,0,0c-.22.14-.32.29-.29.45a.73.73,0,0,0,.4.45,2.51,2.51,0,0,0,.57.24,2.48,2.48,0,0,0,.45.05h.14l.12.06.18.1a.17.17,0,0,1,.08.09s0,.07-.06.08a1.05,1.05,0,0,1-.3.06,1.77,1.77,0,0,1-.45,0,3.42,3.42,0,0,1-.56-.13,3.64,3.64,0,0,1-.61-.28,1.59,1.59,0,0,1-.45-.37.68.68,0,0,1-.17-.38.67.67,0,0,1,.09-.38,1,1,0,0,1,.34-.34A2.16,2.16,0,0,1,275.28,339.65Zm.52.32,1.68,1h0c.21-.13.3-.27.28-.43s-.17-.31-.43-.46a1.53,1.53,0,0,0-.37-.16,1.87,1.87,0,0,0-.4-.07,1.76,1.76,0,0,0-.4,0,1.4,1.4,0,0,0-.36.13Z" style="fill:#e0e0e0"></path><path d="M282.58,344.38a1.39,1.39,0,0,1-.42.14,1.59,1.59,0,0,1-.43,0,1.89,1.89,0,0,1-.4-.08,1.79,1.79,0,0,1-.37-.16,1.38,1.38,0,0,1-.37-.3.45.45,0,0,1-.1-.25h-.2l-.22,0a1.09,1.09,0,0,1-.28-.08,2.19,2.19,0,0,1-.35-.17.92.92,0,0,1-.34-.29.42.42,0,0,1-.08-.31.63.63,0,0,1,.16-.3,1.77,1.77,0,0,1,.35-.27,2.16,2.16,0,0,1,1-.29,1.94,1.94,0,0,1,.53.05,1.57,1.57,0,0,1,.51.19.78.78,0,0,1,.31.27.48.48,0,0,1,.06.21l.05,0a.32.32,0,0,1,.14,0,.38.38,0,0,1,.16,0l.19.11s.07.06.07.09a.08.08,0,0,1,0,.09l-1.1.63c-.11.07-.16.13-.17.21s.05.14.17.21a.6.6,0,0,0,.21.08.67.67,0,0,0,.2,0l.18,0a.35.35,0,0,0,.14-.06l.25-.13a2.49,2.49,0,0,0,.37-.23c.37-.27.51-.55.42-.83a1.89,1.89,0,0,0-.93-.88,3.5,3.5,0,0,0-.65-.3,3.6,3.6,0,0,0-.74-.15,2.63,2.63,0,0,0-.74,0,2.29,2.29,0,0,0-.72.21l-.19.09-.24.13-.23.14-.18.12a1,1,0,0,0-.35.41.64.64,0,0,0,0,.43,1.14,1.14,0,0,0,.28.42,2.26,2.26,0,0,0,.5.38l.44.23.37.15.33.09a1.86,1.86,0,0,0,.34.06l.16,0a.43.43,0,0,1,.13.05l.26.15a.14.14,0,0,1,.08.09.12.12,0,0,1-.06.09l-.12,0-.5-.05a3.13,3.13,0,0,1-.56-.12,4.94,4.94,0,0,1-.61-.21,7.06,7.06,0,0,1-.67-.34,3.09,3.09,0,0,1-.67-.51,1.25,1.25,0,0,1-.35-.57.83.83,0,0,1,0-.56A1.2,1.2,0,0,1,278,342l.18-.12.25-.15.25-.14.2-.1a2.64,2.64,0,0,1,.89-.27,4.1,4.1,0,0,1,1,0,4.74,4.74,0,0,1,1,.2,4.21,4.21,0,0,1,.89.39,4,4,0,0,1,.8.58,1.44,1.44,0,0,1,.38.58.73.73,0,0,1-.05.56,1.41,1.41,0,0,1-.5.51l-.2.12-.2.12-.17.09ZM280,342.62a1,1,0,0,0-.2.14.45.45,0,0,0-.11.17.23.23,0,0,0,0,.18.44.44,0,0,0,.18.18,1,1,0,0,0,.6.14,1.5,1.5,0,0,0,.57-.2,1.91,1.91,0,0,0,.24-.17.42.42,0,0,0,.12-.16.24.24,0,0,0,0-.18.56.56,0,0,0-.21-.17.72.72,0,0,0-.31-.11,1.61,1.61,0,0,0-.31,0l-.3.07A1.34,1.34,0,0,0,280,342.62Z" style="fill:#e0e0e0"></path><path d="M283.7,344.51a2.62,2.62,0,0,1,.58-.18,3.39,3.39,0,0,1,.64-.05,3,3,0,0,1,.66.1,2.89,2.89,0,0,1,.63.26,2,2,0,0,1,.48.39.61.61,0,0,1,0,.8,1.59,1.59,0,0,1-.45.37l-.14.08a.3.3,0,0,1-.3,0l-2.06-1.18,0,0c-.22.14-.32.29-.29.45s.16.31.4.45a1.84,1.84,0,0,0,.57.24,2.48,2.48,0,0,0,.45.05H285l.12.06.18.1a.22.22,0,0,1,.08.09s0,.07-.06.08a1.05,1.05,0,0,1-.3.06,1.77,1.77,0,0,1-.45,0,3.42,3.42,0,0,1-.56-.13,3.64,3.64,0,0,1-.61-.28,1.59,1.59,0,0,1-.45-.37.68.68,0,0,1-.17-.38.67.67,0,0,1,.09-.38,1,1,0,0,1,.34-.34A2.16,2.16,0,0,1,283.7,344.51Zm.52.32,1.68,1h0c.21-.12.3-.27.28-.43s-.17-.31-.43-.46a1.53,1.53,0,0,0-.37-.16,2.79,2.79,0,0,0-.4-.07,1.33,1.33,0,0,0-.4,0,1.09,1.09,0,0,0-.36.12Z" style="fill:#e0e0e0"></path><path d="M288.5,346.37h.25l.28,0,.3.08.32.15a1.25,1.25,0,0,1,.49.42.46.46,0,0,1,0,.41h.34a1.45,1.45,0,0,1,.35,0l.36.09.37.18q.61.35.57.69c0,.22-.22.44-.58.65l-1.43.83a.33.33,0,0,1-.15,0,.25.25,0,0,1-.15,0l-.22-.12a.16.16,0,0,1-.08-.09s0-.06.05-.09l1.38-.79c.27-.16.41-.3.41-.44s-.1-.28-.33-.42a1.56,1.56,0,0,0-.7-.19,1.52,1.52,0,0,0-.75.21l-1.42.82a.26.26,0,0,1-.14,0,.42.42,0,0,1-.16,0l-.22-.13a.11.11,0,0,1-.07-.09s0-.06.05-.08l1.38-.8c.27-.15.4-.3.41-.44s-.11-.28-.34-.41a1.28,1.28,0,0,0-.69-.19,1.41,1.41,0,0,0-.75.2l-1.42.82a.24.24,0,0,1-.15,0,.26.26,0,0,1-.15,0l-.22-.13a.11.11,0,0,1-.07-.09s0-.06,0-.08l2.41-1.39a.26.26,0,0,1,.14,0,.42.42,0,0,1,.16,0l.22.13a.11.11,0,0,1,.07.09s0,.06,0,.08Z" style="fill:#e0e0e0"></path><path d="M291.34,350a1.19,1.19,0,0,1,.46-.15,1.51,1.51,0,0,1,.52,0,2.9,2.9,0,0,1,.57.12,4.58,4.58,0,0,1,.58.22l1,.41.07,0c.17-.1.24-.21.19-.34a.74.74,0,0,0-.36-.37,1.44,1.44,0,0,0-.48-.18,3.17,3.17,0,0,0-.43,0,.32.32,0,0,1-.14,0l-.12-.05-.18-.11a.12.12,0,0,1-.08-.09.08.08,0,0,1,.05-.08.82.82,0,0,1,.34-.07,1.52,1.52,0,0,1,.47,0,2.92,2.92,0,0,1,1,.34,1.68,1.68,0,0,1,.43.33.64.64,0,0,1,.2.34.49.49,0,0,1-.06.33,1.09,1.09,0,0,1-.35.31l-1.58.91a.32.32,0,0,1-.14,0,.38.38,0,0,1-.16,0l-.22-.12s-.07-.06-.07-.09,0-.06.05-.09l.21-.12a1,1,0,0,1-.34,0,2.92,2.92,0,0,1-.39-.07l-.38-.13-.32-.16a1.43,1.43,0,0,1-.37-.28.82.82,0,0,1-.18-.28.36.36,0,0,1,0-.25A.56.56,0,0,1,291.34,350Zm.81.8a2.16,2.16,0,0,0,.45.19,2,2,0,0,0,.47.09,1.6,1.6,0,0,0,.44,0,1,1,0,0,0,.38-.14l.13-.07-.81-.35a3.72,3.72,0,0,0-.76-.25.78.78,0,0,0-.52,0,.34.34,0,0,0-.08.09.14.14,0,0,0,0,.11.37.37,0,0,0,.08.15A1.24,1.24,0,0,0,292.15,350.79Z" style="fill:#e0e0e0"></path><path d="M298,350.87a.26.26,0,0,1-.14,0,.42.42,0,0,1-.16,0l-.34-.2a.11.11,0,0,1-.07-.09.08.08,0,0,1,.05-.08l.3-.17a.26.26,0,0,1,.14,0,.29.29,0,0,1,.16,0l.34.2a.13.13,0,0,1,.07.09.08.08,0,0,1-.05.08Zm-3.15,1.75a.19.19,0,0,1-.15,0,.29.29,0,0,1-.16,0l-.22-.13a.13.13,0,0,1-.07-.08.09.09,0,0,1,0-.09l2.41-1.39a.34.34,0,0,1,.3,0l.22.13c.05,0,.07.05.08.09a.1.1,0,0,1-.05.08Z" style="fill:#e0e0e0"></path><path d="M296.27,353.46a.24.24,0,0,1-.15,0,.29.29,0,0,1-.16,0l-.22-.13a.13.13,0,0,1-.07-.08.09.09,0,0,1,.05-.09l3.39-2a.33.33,0,0,1,.15,0l.15,0,.23.13a.18.18,0,0,1,.07.09.1.1,0,0,1,0,.09Z" style="fill:#e0e0e0"></path><path d="M298.14,354a.18.18,0,0,1,.07.09.09.09,0,0,1,0,.09l-.35.2a.29.29,0,0,1-.14,0,.38.38,0,0,1-.16-.05l-.4-.23s-.07-.05-.07-.08a.08.08,0,0,1,0-.09l.35-.2a.26.26,0,0,1,.14,0,.42.42,0,0,1,.16,0Z" style="fill:#e0e0e0"></path><path d="M300,354.44a.86.86,0,0,0-.25.26.45.45,0,0,0,0,.25.49.49,0,0,0,.13.23.82.82,0,0,0,.25.19,1.9,1.9,0,0,0,.58.23,1.66,1.66,0,0,0,.63,0,.72.72,0,0,1,.19,0,.34.34,0,0,1,.14.05l.18.1a.22.22,0,0,1,.08.09.1.1,0,0,1-.06.09,1.13,1.13,0,0,1-.36.1,2.3,2.3,0,0,1-.53,0,4.18,4.18,0,0,1-.64-.12,2.67,2.67,0,0,1-.66-.28,1.9,1.9,0,0,1-.49-.39.67.67,0,0,1-.17-.39.59.59,0,0,1,.1-.38,1.24,1.24,0,0,1,.35-.33l.2-.13.22-.11a2.64,2.64,0,0,1,.58-.2,2.86,2.86,0,0,1,.65-.06,2.66,2.66,0,0,1,.68.1,2.58,2.58,0,0,1,.67.28,1.57,1.57,0,0,1,.49.38.8.8,0,0,1,.2.37.44.44,0,0,1,0,.3.46.46,0,0,1-.18.21.21.21,0,0,1-.14,0,.34.34,0,0,1-.16-.05l-.18-.1s-.07-.05-.08-.08a.14.14,0,0,1,0-.12.32.32,0,0,0,0-.36,1.12,1.12,0,0,0-.39-.33,1.52,1.52,0,0,0-.34-.15,1.76,1.76,0,0,0-.4-.07,2.2,2.2,0,0,0-.44,0,1.59,1.59,0,0,0-.45.15A1.79,1.79,0,0,0,300,354.44Z" style="fill:#e0e0e0"></path><path d="M305.77,355.94a1.89,1.89,0,0,1,.49.38.81.81,0,0,1,.2.39.56.56,0,0,1-.08.37,1.22,1.22,0,0,1-.34.34.41.41,0,0,1-.11.07l-.13.08-.14.08-.11.06a3,3,0,0,1-.6.19,2.72,2.72,0,0,1-.64.05,3.23,3.23,0,0,1-.67-.11,3.16,3.16,0,0,1-.66-.29,1.85,1.85,0,0,1-.49-.38.76.76,0,0,1-.19-.38.55.55,0,0,1,.08-.37,1.12,1.12,0,0,1,.34-.35l.1-.06a.57.57,0,0,1,.13-.08l.14-.08.12-.06a2.73,2.73,0,0,1,.59-.2,2.84,2.84,0,0,1,.65,0,3.23,3.23,0,0,1,.67.11A2.84,2.84,0,0,1,305.77,355.94Zm-.74,1.44.23-.12.21-.13a.86.86,0,0,0,.21-.22.39.39,0,0,0,.07-.23.52.52,0,0,0-.11-.24,1.19,1.19,0,0,0-.31-.24,1.9,1.9,0,0,0-.42-.18,1.52,1.52,0,0,0-.42-.06,1.75,1.75,0,0,0-.4,0,2.29,2.29,0,0,0-.37.12l-.23.12-.2.13a1,1,0,0,0-.21.21.41.41,0,0,0-.07.23.43.43,0,0,0,.11.24,1,1,0,0,0,.31.25,1.48,1.48,0,0,0,.42.17,2,2,0,0,0,.42.07,1.81,1.81,0,0,0,.4,0A1.9,1.9,0,0,0,305,357.38Z" style="fill:#e0e0e0"></path><path d="M308.14,357.71h.25l.28,0,.3.08.32.15a1.25,1.25,0,0,1,.49.42.46.46,0,0,1,0,.41h.34a1.45,1.45,0,0,1,.35,0l.36.09a2.13,2.13,0,0,1,.38.18c.4.23.59.46.56.69s-.22.44-.58.65l-1.43.83a.33.33,0,0,1-.15,0,.43.43,0,0,1-.16-.05l-.22-.12a.18.18,0,0,1-.07-.09.1.1,0,0,1,.05-.09l1.38-.79c.27-.16.41-.3.41-.45s-.1-.27-.34-.41a1.49,1.49,0,0,0-.69-.19,1.52,1.52,0,0,0-.75.21l-1.42.82a.26.26,0,0,1-.14,0,.42.42,0,0,1-.16,0l-.22-.13a.12.12,0,0,1-.07-.09s0-.06.05-.08l1.38-.8c.27-.15.4-.3.41-.44s-.11-.28-.34-.42a1.49,1.49,0,0,0-.69-.19,1.52,1.52,0,0,0-.75.21l-1.42.82a.33.33,0,0,1-.15,0,.24.24,0,0,1-.15,0l-.22-.13a.11.11,0,0,1-.07-.09s0-.06.05-.08l2.41-1.39a.29.29,0,0,1,.14,0,.42.42,0,0,1,.16,0l.22.13a.11.11,0,0,1,.07.09s0,.06-.05.08Z" style="fill:#e0e0e0"></path><path d="M264.67,314.29a.3.3,0,0,1-.07-.28c0-.12.2-.16.36-.07L351,363.64a.37.37,0,0,1,.2.39c-.05.13-.21.16-.36.07L264.8,314.41A.37.37,0,0,1,264.67,314.29Z" style="fill:#e0e0e0"></path><path d="M237.67,385.72a.3.3,0,0,1-.07-.28c0-.13.2-.16.36-.07l37.71,21.77a.37.37,0,0,1,.2.4c0,.12-.2.16-.36.07L237.8,385.83A.47.47,0,0,1,237.67,385.72Z" style="fill:#e0e0e0"></path><path d="M189.31,357.8a.3.3,0,0,1-.07-.28c0-.13.21-.16.36-.07l37.72,21.78a.35.35,0,0,1,.19.39c0,.13-.2.16-.35.07l-37.72-21.78A.45.45,0,0,1,189.31,357.8Z" style="fill:#e0e0e0"></path><path d="M230.66,380.58a2.39,2.39,0,0,1,.62-.22,2.65,2.65,0,0,1,.7-.06,3.52,3.52,0,0,1,.76.12,3.62,3.62,0,0,1,.8.34,2.57,2.57,0,0,1,.59.46.78.78,0,0,1,.21.44.61.61,0,0,1-.1.41,1.45,1.45,0,0,1-.38.35l-.19.12-.22.13-.23.13-.2.11a3,3,0,0,1-.62.22,2.65,2.65,0,0,1-.7.06,3,3,0,0,1-.76-.13,3.37,3.37,0,0,1-.79-.34,2.45,2.45,0,0,1-.6-.46.83.83,0,0,1-.22-.44.6.6,0,0,1,.11-.4,1.32,1.32,0,0,1,.38-.36l.19-.12.22-.13.23-.12ZM233.1,382q.32-.21.27-.45c0-.16-.17-.31-.42-.46a2,2,0,0,0-.8-.24,1.39,1.39,0,0,0-.78.16l-.41.22-.38.23q-.32.21-.27.45c0,.16.17.31.43.46a1.75,1.75,0,0,0,.79.25,1.5,1.5,0,0,0,.78-.16l.4-.22C232.86,382.16,233,382.09,233.1,382Z" style="fill:#e0e0e0"></path><path d="M235.66,383.68a1.15,1.15,0,0,0-.59-.2,1,1,0,0,0-.55.15l-1.23.71a.17.17,0,0,1-.13,0,.32.32,0,0,1-.14,0l-.41-.24a.17.17,0,0,1-.07-.08.07.07,0,0,1,.05-.08l2.19-1.27a.19.19,0,0,1,.13,0,.33.33,0,0,1,.15,0l.41.24s.06,0,.06.08a.07.07,0,0,1,0,.08l-.11.06a2.19,2.19,0,0,1,.47.08,1.75,1.75,0,0,1,.49.2l.24.14a.18.18,0,0,1,.07.09s0,.05-.05.07l-.31.18a.25.25,0,0,1-.13,0,.29.29,0,0,1-.14,0Z" style="fill:#e0e0e0"></path><path d="M246.42,329.39a2.44,2.44,0,0,1-.43-.85,1.73,1.73,0,0,1,1-2l5.43-3.14a6.25,6.25,0,0,1,5.69.25L334,367.53a3.06,3.06,0,0,1,1.53,1.77,1.73,1.73,0,0,1-1,1.95l-5.43,3.13a6.19,6.19,0,0,1-5.69-.25h0l-75.91-43.82A3.84,3.84,0,0,1,246.42,329.39Zm88.14,39.38a2.6,2.6,0,0,0-.76-.62l-75.91-43.83a5.5,5.5,0,0,0-4.94-.19l-5.43,3.14c-.62.35-.9.84-.78,1.33a2,2,0,0,0,1,1.09l75.91,43.83a5.5,5.5,0,0,0,4.94.18l5.43-3.13a1.24,1.24,0,0,0,.78-1.34A1.35,1.35,0,0,0,334.56,368.77Zm-11,5.05h0Z" style="fill:#e0e0e0"></path><path d="M243.45,331.71a2.81,2.81,0,0,1,.49.35,1,1,0,0,1,.25.38.46.46,0,0,1,0,.38.9.9,0,0,1-.37.35,1.86,1.86,0,0,1-.61.22,2.92,2.92,0,0,1-.66,0,3.07,3.07,0,0,1-.67-.14,3.87,3.87,0,0,1-.62-.29l-1.09-.63-1.27.73a.34.34,0,0,1-.3,0l-.25-.14s-.07-.06-.07-.09a.1.1,0,0,1,.05-.09l3.34-1.92a.19.19,0,0,1,.15,0,.24.24,0,0,1,.15,0Zm-2.85.37,1.07.62a2.23,2.23,0,0,0,.83.29,1.12,1.12,0,0,0,.72-.15c.22-.12.31-.26.25-.41A1.1,1.1,0,0,0,243,332l-1.07-.62Z" style="fill:#455a64"></path><path d="M242.31,334.45a1.19,1.19,0,0,1,.46-.15,1.57,1.57,0,0,1,.53,0,3,3,0,0,1,.56.12,5.71,5.71,0,0,1,.58.21l1,.42.07,0c.18-.1.24-.21.2-.34a.76.76,0,0,0-.37-.36,1.23,1.23,0,0,0-.48-.19,3.1,3.1,0,0,0-.43,0,.28.28,0,0,1-.13,0l-.13,0-.18-.11a.11.11,0,0,1-.07-.09s0-.06.05-.08a1.21,1.21,0,0,1,.34-.08,1.87,1.87,0,0,1,.46,0,2.59,2.59,0,0,1,.52.12,2.71,2.71,0,0,1,.49.22,2,2,0,0,1,.44.32.76.76,0,0,1,.19.35.4.4,0,0,1-.06.33,1,1,0,0,1-.35.31l-1.57.91a.33.33,0,0,1-.15,0,.43.43,0,0,1-.16-.05l-.22-.12a.18.18,0,0,1-.07-.09.1.1,0,0,1,.05-.09l.21-.12a1,1,0,0,1-.34,0,2.79,2.79,0,0,1-.38-.07l-.38-.13a3.42,3.42,0,0,1-.33-.16,1.88,1.88,0,0,1-.37-.28.6.6,0,0,1-.17-.28.31.31,0,0,1,0-.25A.53.53,0,0,1,242.31,334.45Zm.82.8a1.79,1.79,0,0,0,.45.19,2,2,0,0,0,.46.09,2.1,2.1,0,0,0,.44,0,1.42,1.42,0,0,0,.38-.14l.13-.08-.8-.35a3.92,3.92,0,0,0-.76-.25.77.77,0,0,0-.52,0s-.07,0-.08.09a.14.14,0,0,0,0,.11.3.3,0,0,0,.09.15A1,1,0,0,0,243.13,335.25Z" style="fill:#455a64"></path><path d="M247.63,337.44c.07,0,.1-.08.1-.13a.24.24,0,0,0-.08-.17,1.64,1.64,0,0,0-.23-.24l-.36-.31c-.26-.22-.39-.4-.39-.56a.49.49,0,0,1,.29-.39,1,1,0,0,1,.36-.12,1.45,1.45,0,0,1,.47,0,2.18,2.18,0,0,1,.53.11,3.3,3.3,0,0,1,1,.58,1.26,1.26,0,0,1,.22.3.43.43,0,0,1,0,.24.31.31,0,0,1-.11.16.33.33,0,0,1-.15,0,.42.42,0,0,1-.16,0l-.19-.12a.21.21,0,0,1-.08-.06.11.11,0,0,1,0-.08.3.3,0,0,0-.08-.22,1.35,1.35,0,0,0-.36-.28,1.79,1.79,0,0,0-.54-.2.55.55,0,0,0-.41,0,.24.24,0,0,0-.11.12.21.21,0,0,0,.05.15l.21.21.35.3a2,2,0,0,1,.33.34.77.77,0,0,1,.11.28.3.3,0,0,1-.06.22.6.6,0,0,1-.21.17,1,1,0,0,1-.38.13,2.09,2.09,0,0,1-.5,0,3.23,3.23,0,0,1-.57-.12,2.84,2.84,0,0,1-.59-.27,2,2,0,0,1-.46-.33,1.12,1.12,0,0,1-.23-.31.38.38,0,0,1-.05-.26.23.23,0,0,1,.1-.17.29.29,0,0,1,.14,0,.42.42,0,0,1,.16,0l.22.13.07.05a.08.08,0,0,1,0,.09.34.34,0,0,0,.09.25,1.39,1.39,0,0,0,.37.29l.29.13a1.71,1.71,0,0,0,.3.09l.27,0A.39.39,0,0,0,247.63,337.44Z" style="fill:#455a64"></path><path d="M250.65,339.19a.17.17,0,0,0,.1-.13.32.32,0,0,0-.07-.18l-.24-.23c-.1-.09-.22-.2-.36-.31s-.39-.41-.38-.56a.46.46,0,0,1,.28-.39,1.15,1.15,0,0,1,.37-.13,1.72,1.72,0,0,1,.46,0,2.18,2.18,0,0,1,.53.11,2.88,2.88,0,0,1,.57.26,2,2,0,0,1,.46.33,1.06,1.06,0,0,1,.22.29.43.43,0,0,1,0,.24.31.31,0,0,1-.11.16.18.18,0,0,1-.15,0,.24.24,0,0,1-.15,0l-.2-.11-.07-.06a.1.1,0,0,1,0-.09.33.33,0,0,0-.08-.22,1.18,1.18,0,0,0-.36-.27,1.54,1.54,0,0,0-.53-.21.63.63,0,0,0-.42,0,.24.24,0,0,0-.11.12.21.21,0,0,0,.05.15,1.37,1.37,0,0,0,.21.21l.35.31a1.48,1.48,0,0,1,.33.34.5.5,0,0,1,.11.27.28.28,0,0,1-.06.22.63.63,0,0,1-.21.18,1,1,0,0,1-.38.12,1.66,1.66,0,0,1-.5,0,3.3,3.3,0,0,1-.57-.13,3,3,0,0,1-.59-.26,2.29,2.29,0,0,1-.46-.34,1.18,1.18,0,0,1-.23-.31.37.37,0,0,1-.05-.26.2.2,0,0,1,.1-.16.21.21,0,0,1,.14,0,.38.38,0,0,1,.16.05l.22.12s.05,0,.07.06a.09.09,0,0,1,0,.08.28.28,0,0,0,.08.25,1.35,1.35,0,0,0,.37.29l.29.14a1.71,1.71,0,0,0,.3.09.86.86,0,0,0,.27,0A.4.4,0,0,0,250.65,339.19Z" style="fill:#455a64"></path><path d="M254.84,341.49l2.39-.61h.15a.43.43,0,0,1,.18.06l.2.11s.06,0,.06.08a.08.08,0,0,1-.05.08l0,0-3.3.84a.45.45,0,0,1-.16,0,.3.3,0,0,1-.16,0l-.18-.1c-.06,0-.08-.07-.08-.1a.36.36,0,0,1,0-.09l1-1.41-2.43.59h-.17a.25.25,0,0,1-.16,0l-.18-.11a.12.12,0,0,1-.08-.09.36.36,0,0,1,0-.09l1.47-1.9,0,0a.23.23,0,0,1,.13,0,.28.28,0,0,1,.13,0l.2.11c.06,0,.09.07.1.11a.19.19,0,0,1,0,.08l-1.06,1.39,2.44-.59h.14a.28.28,0,0,1,.17.05l.13.07c.06,0,.09.07.09.1a.19.19,0,0,1,0,.08Z" style="fill:#455a64"></path><path d="M259.8,342.16a2.14,2.14,0,0,1,.49.38.79.79,0,0,1,.19.39.51.51,0,0,1-.08.37,1,1,0,0,1-.34.35l-.1.06-.14.08-.13.08-.11.06a2.47,2.47,0,0,1-.6.19,2.35,2.35,0,0,1-.65.05,3,3,0,0,1-.66-.11,3.19,3.19,0,0,1-.66-.28,1.89,1.89,0,0,1-.49-.38.79.79,0,0,1-.19-.39.55.55,0,0,1,.07-.37,1.29,1.29,0,0,1,.35-.35l.09-.06.14-.08.13-.08.12-.06a2.47,2.47,0,0,1,.6-.19,2.35,2.35,0,0,1,.65-.05,3,3,0,0,1,.66.11A3.19,3.19,0,0,1,259.8,342.16Zm-.74,1.44.23-.12.2-.13a.89.89,0,0,0,.22-.21.36.36,0,0,0,.06-.24.42.42,0,0,0-.11-.24,1,1,0,0,0-.3-.24,1.9,1.9,0,0,0-.42-.18,1.64,1.64,0,0,0-.42-.06,1.75,1.75,0,0,0-.4,0,2.29,2.29,0,0,0-.37.12l-.23.12-.2.13a.89.89,0,0,0-.22.21.35.35,0,0,0-.06.23.49.49,0,0,0,.11.25,1,1,0,0,0,.3.24,1.78,1.78,0,0,0,.43.18,2,2,0,0,0,.41.06,1.75,1.75,0,0,0,.4,0A2.29,2.29,0,0,0,259.06,343.6Z" style="fill:#455a64"></path><path d="M263.5,344.36a.11.11,0,0,1,.07.09s0,.06-.05.08l-.16.1a.33.33,0,0,1-.15,0l-.15,0-.35-.2a1.19,1.19,0,0,0-1.28-.06l-1.51.87a.19.19,0,0,1-.15,0,.24.24,0,0,1-.15,0l-.22-.13a.12.12,0,0,1-.08-.09.1.1,0,0,1,.05-.08l2.41-1.39a.34.34,0,0,1,.3,0l.23.13a.13.13,0,0,1,.07.09.08.08,0,0,1-.05.08l-.16.1a1.44,1.44,0,0,1,.51,0,2.12,2.12,0,0,1,.51.21Z" style="fill:#455a64"></path><path d="M265.37,345.38a1.47,1.47,0,0,1,.48.4.59.59,0,0,1,.09.33l1.14-.66a.24.24,0,0,1,.15,0,.29.29,0,0,1,.16,0l.21.12a.16.16,0,0,1,.08.09.11.11,0,0,1-.05.09l-3.4,2a.26.26,0,0,1-.14,0,.43.43,0,0,1-.16-.05l-.22-.12a.18.18,0,0,1-.07-.09.1.1,0,0,1,.05-.09l.16-.09a2.22,2.22,0,0,1-1.27-.33,1.65,1.65,0,0,1-.44-.35.69.69,0,0,1-.18-.39.64.64,0,0,1,.1-.39,1.15,1.15,0,0,1,.39-.36l.16-.1.18-.1a2.36,2.36,0,0,1,.63-.22,2.61,2.61,0,0,1,.68-.06,3.76,3.76,0,0,1,.66.1A2.55,2.55,0,0,1,265.37,345.38Zm-.7,1.47.21-.12.2-.12c.24-.15.34-.31.31-.47s-.16-.33-.41-.47a1.77,1.77,0,0,0-.84-.24,1.92,1.92,0,0,0-.84.2l-.29.17q-.35.22-.33.48c0,.17.14.33.4.49a1.86,1.86,0,0,0,.8.24A1.58,1.58,0,0,0,264.67,346.85Z" style="fill:#455a64"></path><path d="M233.09,340.52a1.68,1.68,0,0,1,.57-.21,3,3,0,0,1,.68-.05,2.76,2.76,0,0,1,.69.11,2.51,2.51,0,0,1,.63.25,1.71,1.71,0,0,1,.45.37.76.76,0,0,1,.18.4.62.62,0,0,1-.08.39,1.16,1.16,0,0,1-.36.33,1.74,1.74,0,0,1-.58.21,2.94,2.94,0,0,1-.67.05,3.29,3.29,0,0,1-.7-.11,2.89,2.89,0,0,1-.63-.26,1.49,1.49,0,0,1-.44-.36.82.82,0,0,1-.19-.4.6.6,0,0,1,.09-.39A.83.83,0,0,1,233.09,340.52Z" style="fill:#e0e0e0"></path><path d="M237.54,343.09a1.77,1.77,0,0,1,.57-.21,3,3,0,0,1,.68-.05,2.76,2.76,0,0,1,.69.11,2.51,2.51,0,0,1,.63.25,1.74,1.74,0,0,1,.45.37.69.69,0,0,1,.18.4.6.6,0,0,1-.08.39,1.16,1.16,0,0,1-.36.33,1.74,1.74,0,0,1-.58.21,2.94,2.94,0,0,1-.67.05,3.2,3.2,0,0,1-.69-.11,2.77,2.77,0,0,1-.64-.26,1.49,1.49,0,0,1-.44-.36.82.82,0,0,1-.19-.4.6.6,0,0,1,.09-.39A.83.83,0,0,1,237.54,343.09Z" style="fill:#e0e0e0"></path><path d="M242,345.66a1.77,1.77,0,0,1,.57-.21,3,3,0,0,1,.68-.05,2.76,2.76,0,0,1,.69.11,2.51,2.51,0,0,1,.63.25,1.44,1.44,0,0,1,.45.37.69.69,0,0,1,.18.4.62.62,0,0,1-.08.39,1,1,0,0,1-.36.33,2,2,0,0,1-.57.21,3,3,0,0,1-.68.05,3.3,3.3,0,0,1-.69-.11,2.77,2.77,0,0,1-.64-.26,1.49,1.49,0,0,1-.44-.36.82.82,0,0,1-.19-.4.66.66,0,0,1,.09-.39A.83.83,0,0,1,242,345.66Z" style="fill:#e0e0e0"></path><path d="M246.44,348.23A1.74,1.74,0,0,1,247,348a2.94,2.94,0,0,1,.67,0,3.29,3.29,0,0,1,.7.11,2.85,2.85,0,0,1,.63.25,1.68,1.68,0,0,1,.44.37.78.78,0,0,1,.19.4.62.62,0,0,1-.09.39,1,1,0,0,1-.36.33,1.77,1.77,0,0,1-.57.21,3,3,0,0,1-.68.05,3.3,3.3,0,0,1-.69-.11,2.53,2.53,0,0,1-.63-.26,1.55,1.55,0,0,1-.45-.36.72.72,0,0,1-.18-.4.59.59,0,0,1,.08-.39A1,1,0,0,1,246.44,348.23Z" style="fill:#e0e0e0"></path><path d="M250.89,350.8a1.74,1.74,0,0,1,.58-.21,2.94,2.94,0,0,1,.67,0,3.29,3.29,0,0,1,.7.11,2.51,2.51,0,0,1,.63.25,1.51,1.51,0,0,1,.44.37.78.78,0,0,1,.19.4.62.62,0,0,1-.09.39,1,1,0,0,1-.36.33,1.93,1.93,0,0,1-.57.21,3,3,0,0,1-.68,0,3.3,3.3,0,0,1-.69-.11,2.53,2.53,0,0,1-.63-.26,1.69,1.69,0,0,1-.45-.36.79.79,0,0,1-.18-.4.59.59,0,0,1,.08-.39A1,1,0,0,1,250.89,350.8Z" style="fill:#e0e0e0"></path><path d="M255.34,353.37a1.74,1.74,0,0,1,.58-.21,2.94,2.94,0,0,1,.67-.05,3.29,3.29,0,0,1,.7.11,2.51,2.51,0,0,1,.63.25,1.93,1.93,0,0,1,.45.37.85.85,0,0,1,.18.4.57.57,0,0,1-.09.39,1,1,0,0,1-.36.33,1.61,1.61,0,0,1-.57.21,3,3,0,0,1-.67.05,3.29,3.29,0,0,1-.7-.11,2.53,2.53,0,0,1-.63-.26,1.69,1.69,0,0,1-.45-.36.89.89,0,0,1-.18-.4.59.59,0,0,1,.08-.39A1,1,0,0,1,255.34,353.37Z" style="fill:#e0e0e0"></path><path d="M259.8,355.94a1.61,1.61,0,0,1,.57-.21,3,3,0,0,1,.68-.05,2.76,2.76,0,0,1,.69.11,2.51,2.51,0,0,1,.63.25,1.93,1.93,0,0,1,.45.37.85.85,0,0,1,.18.4.6.6,0,0,1-.08.39,1.16,1.16,0,0,1-.36.33,1.74,1.74,0,0,1-.58.21,2.94,2.94,0,0,1-.67.05,3.29,3.29,0,0,1-.7-.11,2.2,2.2,0,0,1-.63-.26,1.49,1.49,0,0,1-.44-.36.82.82,0,0,1-.19-.4.54.54,0,0,1,.09-.39A.83.83,0,0,1,259.8,355.94Z" style="fill:#e0e0e0"></path><path d="M264.25,358.51a1.68,1.68,0,0,1,.57-.21,3,3,0,0,1,.68-.05,3.3,3.3,0,0,1,.69.11,2.51,2.51,0,0,1,.63.25,1.93,1.93,0,0,1,.45.37.76.76,0,0,1,.18.4.62.62,0,0,1-.08.39,1.16,1.16,0,0,1-.36.33,1.74,1.74,0,0,1-.58.21,2.94,2.94,0,0,1-.67.05,3.29,3.29,0,0,1-.7-.11,2.89,2.89,0,0,1-.63-.26,1.49,1.49,0,0,1-.44-.36.82.82,0,0,1-.19-.4.6.6,0,0,1,.09-.39A.83.83,0,0,1,264.25,358.51Z" style="fill:#e0e0e0"></path><path d="M225.12,341.69a2.28,2.28,0,0,1-.43-.85,1.73,1.73,0,0,1,1-1.95l5.43-3.14a6.25,6.25,0,0,1,5.69.25l75.91,43.83a3,3,0,0,1,1.53,1.77,1.73,1.73,0,0,1-1,1.95l-5.43,3.13a6.19,6.19,0,0,1-5.69-.25h0l-75.91-43.82A3.93,3.93,0,0,1,225.12,341.69Zm88.14,39.38a2.73,2.73,0,0,0-.76-.62l-75.91-43.83a5.52,5.52,0,0,0-5-.19l-5.43,3.14a1.24,1.24,0,0,0-.77,1.33,2,2,0,0,0,1,1.09l75.92,43.83a5.5,5.5,0,0,0,4.94.18l5.43-3.13a1.25,1.25,0,0,0,.77-1.34A1.17,1.17,0,0,0,313.26,381.07Zm-11,5.05h0Z" style="fill:#e0e0e0"></path><path d="M227.85,347.63a1.78,1.78,0,0,1,.39.28.82.82,0,0,1,.22.3.39.39,0,0,1,0,.3.65.65,0,0,1-.29.28,1.45,1.45,0,0,1-.73.19,2.64,2.64,0,0,1-.78-.12l-.36,1,0,0-.1,0a.17.17,0,0,1-.1,0l-.2-.12c-.07,0-.1-.07-.1-.1a.11.11,0,0,1,0-.08l.36-1-.82-.48-1,.61a.22.22,0,0,1-.24,0l-.2-.11a.13.13,0,0,1-.06-.07.08.08,0,0,1,0-.07l2.68-1.54a.13.13,0,0,1,.11,0,.28.28,0,0,1,.13,0Zm-2.19.3.81.47a1.93,1.93,0,0,0,.65.24.86.86,0,0,0,.57-.12c.18-.1.24-.21.19-.32a.93.93,0,0,0-.42-.37l-.81-.47Z" style="fill:#e0e0e0"></path><path d="M227.86,349.5a1.77,1.77,0,0,1,.46-.15,3,3,0,0,1,.52,0,3.12,3.12,0,0,1,.52.08,2.28,2.28,0,0,1,.51.21,1.44,1.44,0,0,1,.39.31.55.55,0,0,1,.13.32.46.46,0,0,1-.11.32,1.23,1.23,0,0,1-.36.29l-.11.07-.11,0a.28.28,0,0,1-.13,0l-1.64-.95h0c-.18.11-.26.24-.23.37a.57.57,0,0,0,.32.36,1.66,1.66,0,0,0,.46.19,2.5,2.5,0,0,0,.35,0h.11l.1,0,.15.09a.11.11,0,0,1,.06.07s0,.05-.05.06a.72.72,0,0,1-.24.05,1.53,1.53,0,0,1-.36,0,2,2,0,0,1-.44-.1,3.14,3.14,0,0,1-.5-.23,1.06,1.06,0,0,1-.35-.29.59.59,0,0,1-.14-.3.57.57,0,0,1,.07-.31.87.87,0,0,1,.27-.27A1.57,1.57,0,0,1,227.86,349.5Zm.42.25,1.34.77h0c.17-.1.24-.21.22-.34s-.13-.25-.34-.37a1,1,0,0,0-.3-.13,1.65,1.65,0,0,0-.32-.06,1.72,1.72,0,0,0-.32,0,.85.85,0,0,0-.28.1Z" style="fill:#e0e0e0"></path><path d="M231.7,351h.2l.23,0,.23.06a1.51,1.51,0,0,1,.26.12,1,1,0,0,1,.39.34.33.33,0,0,1,0,.32h.27l.28,0a1.43,1.43,0,0,1,.28.07,2.73,2.73,0,0,1,.31.14c.32.19.47.37.45.56s-.18.35-.47.52l-1.14.66a.22.22,0,0,1-.12,0,.21.21,0,0,1-.12,0l-.18-.1a.12.12,0,0,1-.06-.08.07.07,0,0,1,0-.06l1.11-.64c.21-.12.32-.24.32-.35s-.08-.23-.27-.33a1.17,1.17,0,0,0-.55-.16,1.24,1.24,0,0,0-.6.17l-1.14.66-.11,0a.28.28,0,0,1-.13,0l-.17-.11s-.06,0-.06-.07a.06.06,0,0,1,0-.06l1.11-.64c.21-.12.32-.24.32-.36s-.08-.22-.27-.33a1.29,1.29,0,0,0-.55-.15,1.14,1.14,0,0,0-.6.17l-1.14.66-.11,0a.5.5,0,0,1-.13,0l-.17-.11s-.06,0-.06-.07,0,0,0-.07l1.93-1.11a.18.18,0,0,1,.11,0,.28.28,0,0,1,.13,0l.17.1a.1.1,0,0,1,.06.07.08.08,0,0,1,0,.07Z" style="fill:#e0e0e0"></path><path d="M234.78,353.49a1.66,1.66,0,0,1,.46-.15,2.85,2.85,0,0,1,.51,0,3.23,3.23,0,0,1,.53.08,2.41,2.41,0,0,1,.5.21,1.44,1.44,0,0,1,.39.31.47.47,0,0,1,0,.64,1.23,1.23,0,0,1-.36.29l-.11.07a.23.23,0,0,1-.12,0,.28.28,0,0,1-.13,0l-1.64-.95,0,0c-.19.11-.26.23-.24.36a.6.6,0,0,0,.32.36,1.8,1.8,0,0,0,.46.19,2.5,2.5,0,0,0,.35,0h.12l.1,0,.14.09s.06,0,.06.07,0,.05,0,.07a1.18,1.18,0,0,1-.25,0,1.49,1.49,0,0,1-.36,0,3.13,3.13,0,0,1-.44-.11,2.16,2.16,0,0,1-.49-.23,1.23,1.23,0,0,1-.36-.29.56.56,0,0,1-.13-.3.43.43,0,0,1,.07-.31.74.74,0,0,1,.26-.27A1.64,1.64,0,0,1,234.78,353.49Zm.41.25,1.34.78h0c.17-.1.24-.21.22-.34s-.13-.25-.34-.37a1.51,1.51,0,0,0-.29-.13,1.91,1.91,0,0,0-.33-.06,1.62,1.62,0,0,0-.31,0,1.24,1.24,0,0,0-.29.1Z" style="fill:#e0e0e0"></path><path d="M238.62,355h.2l.22,0,.24.06.26.12a1.24,1.24,0,0,1,.39.34.37.37,0,0,1,0,.32h.27a1.33,1.33,0,0,1,.28,0,1.53,1.53,0,0,1,.29.07l.3.15c.32.18.47.37.45.55s-.18.35-.46.52l-1.15.66a.16.16,0,0,1-.12,0,.24.24,0,0,1-.12,0l-.18-.1a.19.19,0,0,1-.06-.07s0-.05,0-.07l1.1-.64c.21-.12.32-.24.33-.35s-.09-.23-.27-.33a1.09,1.09,0,0,0-.56-.15,1.13,1.13,0,0,0-.6.16l-1.13.66a.22.22,0,0,1-.12,0,.21.21,0,0,1-.12,0l-.18-.1a.13.13,0,0,1-.06-.07.07.07,0,0,1,0-.07l1.11-.64c.21-.12.32-.24.32-.35s-.08-.23-.27-.33a1.14,1.14,0,0,0-.55-.16,1.24,1.24,0,0,0-.6.17l-1.13.66-.12,0a.28.28,0,0,1-.13,0l-.17-.11s-.06,0-.06-.07a.06.06,0,0,1,0-.06l1.93-1.12a.2.2,0,0,1,.11,0,.28.28,0,0,1,.13,0l.18.1a.1.1,0,0,1,.05.08s0,.05,0,.06Z" style="fill:#e0e0e0"></path><path d="M243.89,357.7a1.27,1.27,0,0,1,.35.28.59.59,0,0,1,.14.3.48.48,0,0,1-.08.32,1,1,0,0,1-.31.29l-.13.08-.14.07a1.55,1.55,0,0,1-.51.18,1.94,1.94,0,0,1-.54,0,2.34,2.34,0,0,1-.53-.08,2.65,2.65,0,0,1-.49-.2,1.18,1.18,0,0,1-.38-.32.44.44,0,0,1-.08-.27l-.12.07a.16.16,0,0,1-.12,0,.21.21,0,0,1-.12,0l-.18-.1a.13.13,0,0,1-.06-.07.08.08,0,0,1,0-.07l2.72-1.57.11,0a.28.28,0,0,1,.13,0l.17.1s.06.05.06.08a.06.06,0,0,1,0,.06l-.91.53a2.07,2.07,0,0,1,.46.05A1.66,1.66,0,0,1,243.89,357.7Zm-2,.32q-.24.17-.21.36a.53.53,0,0,0,.32.37,1.26,1.26,0,0,0,.67.19,1.48,1.48,0,0,0,.68-.16l.23-.13a.49.49,0,0,0,.27-.39c0-.14-.12-.26-.33-.38a1.32,1.32,0,0,0-.64-.19,1.4,1.4,0,0,0-.66.14l-.17.09Z" style="fill:#e0e0e0"></path><path d="M244.54,359.13A1.77,1.77,0,0,1,245,359a3,3,0,0,1,.52,0,3.4,3.4,0,0,1,.53.08,2.41,2.41,0,0,1,.5.21,1.44,1.44,0,0,1,.39.31.55.55,0,0,1,.13.32.45.45,0,0,1-.11.32,1.17,1.17,0,0,1-.35.29l-.12.07a.2.2,0,0,1-.11,0,.28.28,0,0,1-.13,0l-1.64-.95h0c-.19.12-.26.24-.24.37a.6.6,0,0,0,.32.36,1.66,1.66,0,0,0,.46.19,2.5,2.5,0,0,0,.35,0h.12l.09,0,.15.09a.13.13,0,0,1,.06.07s0,.05,0,.07a1.31,1.31,0,0,1-.25,0,1.49,1.49,0,0,1-.36,0,3.13,3.13,0,0,1-.44-.11,2.45,2.45,0,0,1-.5-.23,1.32,1.32,0,0,1-.35-.29.59.59,0,0,1-.14-.3.57.57,0,0,1,.07-.31.87.87,0,0,1,.27-.27A1.57,1.57,0,0,1,244.54,359.13Zm.42.25,1.34.77h0c.17-.1.24-.21.22-.34s-.13-.25-.34-.37a1.51,1.51,0,0,0-.29-.13,1.91,1.91,0,0,0-.33-.06,1.77,1.77,0,0,0-.32,0,1.33,1.33,0,0,0-.28.1Z" style="fill:#e0e0e0"></path><path d="M249.45,361a.1.1,0,0,1,.06.07.09.09,0,0,1,0,.07l-.13.07a.16.16,0,0,1-.12,0,.28.28,0,0,1-.13,0l-.27-.16a1,1,0,0,0-1,0l-1.21.7-.11,0a.28.28,0,0,1-.13,0l-.17-.11s-.06,0-.06-.07a.06.06,0,0,1,0-.06l1.93-1.12a.2.2,0,0,1,.11,0,.28.28,0,0,1,.13,0l.17.1a.09.09,0,0,1,.06.08s0,0,0,.06l-.13.08a1.79,1.79,0,0,1,.41,0,1.55,1.55,0,0,1,.41.17Z" style="fill:#e0e0e0"></path><path d="M251.25,362.27h.2l.22,0,.24.06a2.1,2.1,0,0,1,.26.13,1.12,1.12,0,0,1,.39.33.39.39,0,0,1,0,.33h.27a1.33,1.33,0,0,1,.28,0,1,1,0,0,1,.29.08,1.94,1.94,0,0,1,.3.14c.32.18.47.37.45.55s-.17.35-.46.52l-1.15.66a.21.21,0,0,1-.12,0l-.12,0-.18-.1a.13.13,0,0,1-.06-.07s0-.05,0-.07l1.1-.64c.21-.12.32-.24.33-.35s-.09-.22-.27-.33a1.09,1.09,0,0,0-.56-.15,1.06,1.06,0,0,0-.6.17l-1.13.65a.16.16,0,0,1-.12,0,.21.21,0,0,1-.12,0l-.18-.1a.19.19,0,0,1-.06-.07.08.08,0,0,1,0-.07l1.11-.64c.21-.12.32-.24.32-.35s-.08-.23-.27-.33a1.14,1.14,0,0,0-.55-.16,1.24,1.24,0,0,0-.6.17l-1.13.66a.22.22,0,0,1-.12,0,.28.28,0,0,1-.13,0l-.17-.1a.09.09,0,0,1-.06-.08.06.06,0,0,1,0-.06l1.93-1.12.12,0a.24.24,0,0,1,.12,0l.18.11s0,0,0,.07,0,.05,0,.07Z" style="fill:#e0e0e0"></path><path d="M254.32,364.77a1.65,1.65,0,0,1,.46-.14,1.76,1.76,0,0,1,.51,0,2,2,0,0,1,.53.08,1.57,1.57,0,0,1,.5.21,1.46,1.46,0,0,1,.39.3.6.6,0,0,1,.14.32.5.5,0,0,1-.11.32,1.24,1.24,0,0,1-.36.3l-.11.06a.21.21,0,0,1-.12,0l-.12,0-1.65-.95,0,0c-.18.11-.26.23-.23.36a.58.58,0,0,0,.31.36,1.8,1.8,0,0,0,.46.19,1.59,1.59,0,0,0,.36,0h.11l.1.05.14.08s.06,0,.06.07,0,.05,0,.07a1.09,1.09,0,0,1-.25,0,2.24,2.24,0,0,1-.35,0,2.93,2.93,0,0,1-.45-.11,3,3,0,0,1-.49-.22,1.41,1.41,0,0,1-.36-.29.63.63,0,0,1-.13-.31.48.48,0,0,1,.07-.3.89.89,0,0,1,.27-.28A2,2,0,0,1,254.32,364.77Zm.41.25,1.34.78h0c.16-.1.24-.21.22-.34a.65.65,0,0,0-.34-.37,1.57,1.57,0,0,0-.3-.12,1.2,1.2,0,0,0-.32-.06,1.13,1.13,0,0,0-.32,0,.91.91,0,0,0-.29.1Z" style="fill:#e0e0e0"></path><path d="M216.67,345.13a.61.61,0,0,1-.11-.21.3.3,0,0,1,.12-.35l3.49-2a.4.4,0,0,1,.42,0l4,2.33a.66.66,0,0,1,.3.38.32.32,0,0,1-.12.35l-3.5,2a.4.4,0,0,1-.42,0l-4-2.33A.52.52,0,0,1,216.67,345.13Zm3.92-1.71-2.77,1.6,3.07,1.78,2.78-1.6Zm.42,3.86h0Z" style="fill:#e0e0e0"></path><path d="M177.3,369.3a2.28,2.28,0,0,1-.43-.85,1.73,1.73,0,0,1,1-1.95l5.42-3.14a6.27,6.27,0,0,1,5.7.25l75.91,43.83a3,3,0,0,1,1.53,1.77,1.73,1.73,0,0,1-1,2L260,414.3a6.22,6.22,0,0,1-5.69-.26h0L178.4,370.22A3.79,3.79,0,0,1,177.3,369.3Zm88.13,39.38a2.6,2.6,0,0,0-.76-.62l-75.91-43.83a5.5,5.5,0,0,0-4.94-.19l-5.43,3.14c-.61.35-.9.84-.77,1.33a2,2,0,0,0,1,1.09l75.91,43.83a5.56,5.56,0,0,0,5,.19l5.43-3.14a1.25,1.25,0,0,0,.77-1.34A1.2,1.2,0,0,0,265.43,408.68Zm-11,5.05h0Z" style="fill:#4940FF"></path><path d="M161.2,378.59a2.21,2.21,0,0,1-.43-.85,1.73,1.73,0,0,1,1-1.95l5.43-3.14a6.22,6.22,0,0,1,5.69.26l75.91,43.82a3,3,0,0,1,1.53,1.77,1.72,1.72,0,0,1-1,1.95l-5.43,3.14a6.25,6.25,0,0,1-5.69-.25h0L162.3,379.51A3.93,3.93,0,0,1,161.2,378.59ZM249.34,418a2.92,2.92,0,0,0-.76-.62l-75.91-43.83a5.56,5.56,0,0,0-4.95-.19l-5.42,3.14a1.24,1.24,0,0,0-.78,1.34,2,2,0,0,0,1,1.08l75.91,43.83a5.5,5.5,0,0,0,4.94.19l5.43-3.14c.62-.35.9-.84.78-1.33A1.4,1.4,0,0,0,249.34,418Zm-11,5.06h0Z" style="fill:#e0e0e0"></path><path d="M174.26,380.3a.31.31,0,0,1-.07-.28c.05-.13.21-.16.36-.07l62.15,35.88a.35.35,0,0,1,.2.39c0,.13-.2.16-.36.07l-62.15-35.88A.69.69,0,0,1,174.26,380.3Z" style="fill:#e0e0e0"></path></g><g id="freepik--Button--inject-40"><path d="M278.88,402.48a6.66,6.66,0,0,1-3.24-.82l-75.92-43.83a2.65,2.65,0,0,1-1.54-2.16,2.06,2.06,0,0,1,1.16-1.76l8.4-4.85a6.4,6.4,0,0,1,5.81.22l75.91,43.83a2.68,2.68,0,0,1,1.55,2.16,2.06,2.06,0,0,1-1.17,1.76l-8.4,4.85A5.21,5.21,0,0,1,278.88,402.48Zm-2.75-1.67A5.42,5.42,0,0,0,281,401l8.4-4.85a1.16,1.16,0,0,0,.68-.91c0-.44-.4-.93-1.06-1.31l-75.91-43.83a5.5,5.5,0,0,0-4.83-.22l-8.4,4.85a1.14,1.14,0,0,0-.67.91c0,.44.39.93,1.05,1.31Z" style="fill:#e0e0e0"></path><path d="M236.36,368.06a3.18,3.18,0,0,1,.82.62,1.57,1.57,0,0,1,.37.57.66.66,0,0,1,0,.48.82.82,0,0,1-.27.34.31.31,0,0,1-.2,0,.65.65,0,0,1-.21-.06l-.56-.33a.38.38,0,0,1-.16-.14.22.22,0,0,1,0-.14.51.51,0,0,0-.06-.39,1.61,1.61,0,0,0-.6-.49,3.55,3.55,0,0,0-.44-.21,2.71,2.71,0,0,0-.44-.13,1.82,1.82,0,0,0-.4,0,.8.8,0,0,0-.32.09.39.39,0,0,0-.18.19.31.31,0,0,0,.08.25,2.81,2.81,0,0,0,.35.36c.15.14.35.31.59.51a5.16,5.16,0,0,1,.62.6,1.35,1.35,0,0,1,.28.5.56.56,0,0,1-.07.42,1.09,1.09,0,0,1-.4.35,2.22,2.22,0,0,1-.74.25,3.54,3.54,0,0,1-.92,0,5.49,5.49,0,0,1-1-.25,6.51,6.51,0,0,1-1.08-.5,4.35,4.35,0,0,1-.77-.55,2.13,2.13,0,0,1-.46-.58.81.81,0,0,1-.08-.54.72.72,0,0,1,.34-.44.31.31,0,0,1,.2-.05.65.65,0,0,1,.21.06l.56.33a.43.43,0,0,1,.17.14.14.14,0,0,1,0,.14.58.58,0,0,0,0,.19.34.34,0,0,0,.05.21,1.27,1.27,0,0,0,.23.27,3.37,3.37,0,0,0,.47.32,4.52,4.52,0,0,0,.49.25,4.23,4.23,0,0,0,.5.17,2.58,2.58,0,0,0,.46.05.75.75,0,0,0,.37-.09c.1-.06.15-.13.14-.21a.62.62,0,0,0-.18-.3,4.51,4.51,0,0,0-.43-.4c-.19-.15-.39-.34-.62-.54a4.87,4.87,0,0,1-.51-.52,1,1,0,0,1-.21-.45.53.53,0,0,1,.1-.4,1.21,1.21,0,0,1,.44-.37,2.08,2.08,0,0,1,.74-.24,3.31,3.31,0,0,1,.89,0,4.33,4.33,0,0,1,1,.21A4.77,4.77,0,0,1,236.36,368.06Z" style="fill:#e0e0e0"></path><path d="M240.43,370.41a.17.17,0,0,1,.1.12.13.13,0,0,1-.07.11l-.54.31a.31.31,0,0,1-.2,0,.46.46,0,0,1-.21-.05l-.69-.4q-.09-.06-.09-.12a.09.09,0,0,1,.06-.11l.55-.32a.36.36,0,0,1,.19,0,.47.47,0,0,1,.21.06Zm-4.57,2.84a.33.33,0,0,1-.2,0,.46.46,0,0,1-.21-.05l-.61-.36a.17.17,0,0,1-.1-.12.13.13,0,0,1,.07-.11l3.24-1.87a.4.4,0,0,1,.2,0,.37.37,0,0,1,.21.06l.61.35a.17.17,0,0,1,.1.12.13.13,0,0,1-.07.11Z" style="fill:#e0e0e0"></path><path d="M237.9,375.46a3,3,0,0,0,.4.17,1.71,1.71,0,0,0,.46.1,1.93,1.93,0,0,0,.48,0,1.14,1.14,0,0,0,.45-.15l.26-.15-.31,0a2,2,0,0,1-.39-.07,3.26,3.26,0,0,1-.45-.14,3.06,3.06,0,0,1-.49-.23,1.87,1.87,0,0,1-.59-.5.86.86,0,0,1,0-1,1.54,1.54,0,0,1,.47-.44l.23-.14.25-.14a2.91,2.91,0,0,1,.77-.27,4.24,4.24,0,0,1,.88-.09,4.13,4.13,0,0,1,.92.11,3.2,3.2,0,0,1,1.27.62,1.84,1.84,0,0,1,.24.26,1,1,0,0,1,.12.23.61.61,0,0,1,0,.17l.16-.09a.36.36,0,0,1,.19,0,.37.37,0,0,1,.21.06l.61.35c.06,0,.1.07.1.12s0,.08-.07.11l-3.26,1.89a3.19,3.19,0,0,1-1.81.42,4.5,4.5,0,0,1-1.93-.62,3.42,3.42,0,0,1-.67-.49,1.63,1.63,0,0,1-.35-.5.7.7,0,0,1-.06-.44.52.52,0,0,1,.24-.33.28.28,0,0,1,.19,0,.38.38,0,0,1,.22.06l.54.31a.21.21,0,0,1,.13.15.86.86,0,0,1,0,.15.48.48,0,0,0,.1.28A1.54,1.54,0,0,0,237.9,375.46Zm1.74-2.12a2.11,2.11,0,0,0-.39.23c-.27.19-.38.38-.33.56a.92.92,0,0,0,.47.5,2,2,0,0,0,.87.26,1.65,1.65,0,0,0,.88-.15l.28-.14.25-.17a.47.47,0,0,0,.26-.5.83.83,0,0,0-.45-.51,2.11,2.11,0,0,0-.87-.27A1.91,1.91,0,0,0,239.64,373.34Z" style="fill:#e0e0e0"></path><path d="M245.86,379a.4.4,0,0,1-.2,0,.32.32,0,0,1-.2-.06l-.62-.35a.15.15,0,0,1-.09-.12s0-.08.07-.11l1.76-1c.28-.16.43-.34.45-.52s-.13-.36-.44-.54a1.78,1.78,0,0,0-.93-.25,1.91,1.91,0,0,0-.91.25l-1.77,1a.36.36,0,0,1-.19,0,.37.37,0,0,1-.21-.06L242,377a.17.17,0,0,1-.1-.12c0-.05,0-.08.07-.11l3.24-1.88a.4.4,0,0,1,.2,0,.65.65,0,0,1,.21.06l.61.35q.09.06.09.12a.11.11,0,0,1-.06.12l-.16.09a4.41,4.41,0,0,1,.79.11,2.86,2.86,0,0,1,.78.32,2.07,2.07,0,0,1,.69.55.7.7,0,0,1,.17.51.75.75,0,0,1-.23.46,2.39,2.39,0,0,1-.54.41Z" style="fill:#e0e0e0"></path><path d="M254.38,378.46a.21.21,0,0,1,.1.12.12.12,0,0,1-.07.12l-.54.31a.4.4,0,0,1-.2,0,.37.37,0,0,1-.21-.06l-.69-.4a.14.14,0,0,1-.09-.12.1.1,0,0,1,.06-.11l.55-.31a.28.28,0,0,1,.19,0,.46.46,0,0,1,.21.05Zm-4.57,2.85a.4.4,0,0,1-.2,0,.37.37,0,0,1-.21-.06l-.61-.35a.17.17,0,0,1-.1-.12.12.12,0,0,1,.07-.11l3.24-1.88a.42.42,0,0,1,.2,0,.65.65,0,0,1,.21.06l.61.35a.21.21,0,0,1,.1.12.13.13,0,0,1-.07.12Z" style="fill:#e0e0e0"></path><path d="M254.84,384.21a.31.31,0,0,1-.2,0,.46.46,0,0,1-.21-.05l-.61-.36a.17.17,0,0,1-.1-.12.13.13,0,0,1,.07-.11l1.77-1c.28-.16.43-.33.44-.52s-.13-.36-.44-.54a1.83,1.83,0,0,0-.92-.24,1.79,1.79,0,0,0-.91.24l-1.77,1a.31.31,0,0,1-.2,0,.39.39,0,0,1-.2,0l-.62-.36a.15.15,0,0,1-.09-.12s0-.08.07-.11l3.24-1.87a.31.31,0,0,1,.2,0,.42.42,0,0,1,.2,0l.61.36c.06,0,.1.07.1.12s0,.08-.07.11l-.16.09a4.29,4.29,0,0,1,.79.11,3.12,3.12,0,0,1,.79.32,2.33,2.33,0,0,1,.69.55.69.69,0,0,1-.06,1,2.13,2.13,0,0,1-.54.41Z" style="fill:#e0e0e0"></path></g><path d="M200,373.38s.07.06.07.1,0,.07-.07.1l-.45.26a.38.38,0,0,1-.34,0l-2-1.17-1.23.71,1.9,1.1a.09.09,0,0,1,.07.09.1.1,0,0,1-.07.1l-.45.26a.33.33,0,0,1-.17,0,.34.34,0,0,1-.18,0l-1.89-1.09-1.46.84a.43.43,0,0,1-.17,0,.39.39,0,0,1-.17,0l-.52-.3s-.07-.06-.07-.1,0-.07.07-.1l4.11-2.37a.29.29,0,0,1,.17,0,.43.43,0,0,1,.17,0Z" style="fill:#4940FF"></path><path d="M201.19,375.3a1.76,1.76,0,0,1,.52.42.77.77,0,0,1,.08.91,1.4,1.4,0,0,1-.41.39.56.56,0,0,1-.14.09l-.17.11-.18.1-.15.08a3.49,3.49,0,0,1-.69.23,3.29,3.29,0,0,1-.77.06,3.13,3.13,0,0,1-.79-.11,3.38,3.38,0,0,1-.74-.3,2,2,0,0,1-.52-.43.8.8,0,0,1-.19-.45.69.69,0,0,1,.11-.45,1.51,1.51,0,0,1,.4-.4l.14-.08.17-.11.18-.1.15-.08a2.94,2.94,0,0,1,.69-.23,4,4,0,0,1,.78-.07,4.29,4.29,0,0,1,.79.11A3,3,0,0,1,201.19,375.3Zm-.67,1.27a.78.78,0,0,0,.24-.25.29.29,0,0,0,0-.22.52.52,0,0,0-.14-.2,1,1,0,0,0-.23-.16,1.36,1.36,0,0,0-.63-.21,1.63,1.63,0,0,0-.38,0,1.73,1.73,0,0,0-.42.14l-.14.07a.65.65,0,0,0-.16.09l-.16.09-.11.08a.68.68,0,0,0-.24.24.29.29,0,0,0,0,.22.46.46,0,0,0,.14.2,1.06,1.06,0,0,0,.23.17l.29.13a1.54,1.54,0,0,0,.34.08,1.64,1.64,0,0,0,.38,0,1.36,1.36,0,0,0,.42-.13l.13-.07.17-.1.15-.09Z" style="fill:#4940FF"></path><path d="M204.23,378a1.39,1.39,0,0,0-.72-.22,1.45,1.45,0,0,0-.72.22l-1.65.95a.31.31,0,0,1-.17,0,.29.29,0,0,1-.17,0l-.48-.28a.13.13,0,0,1-.08-.1.15.15,0,0,1,.08-.1l3-1.71a.39.39,0,0,1,.17,0,.43.43,0,0,1,.17,0l.48.28c.05,0,.07.06.07.1a.1.1,0,0,1-.07.1l-.14.09a2.65,2.65,0,0,1,.58.06,2,2,0,0,1,.58.24l.28.17a.1.1,0,0,1,.07.09.1.1,0,0,1-.07.1l-.41.25a.48.48,0,0,1-.18,0,.47.47,0,0,1-.17,0Z" style="fill:#4940FF"></path><path d="M203.56,381.29a1.52,1.52,0,0,0,.31.13,1.59,1.59,0,0,0,.38.07,2,2,0,0,0,.42,0,1.07,1.07,0,0,0,.39-.14l.24-.14H205a1.92,1.92,0,0,1-.32-.05,2.93,2.93,0,0,1-.37-.1l-.39-.18a1.25,1.25,0,0,1-.46-.41.7.7,0,0,1-.1-.44.82.82,0,0,1,.19-.44,1.88,1.88,0,0,1,.44-.39,1.42,1.42,0,0,1,.22-.13l.23-.13a3.21,3.21,0,0,1,.68-.26,3.87,3.87,0,0,1,.76-.11,3.35,3.35,0,0,1,.77.07,2.19,2.19,0,0,1,.7.26,1.66,1.66,0,0,1,.31.22,1.09,1.09,0,0,1,.18.22.71.71,0,0,1,.08.18.38.38,0,0,1,0,.15l.15-.08a.31.31,0,0,1,.17,0,.29.29,0,0,1,.17,0l.49.28a.1.1,0,0,1,0,.19l-3,1.72a3,3,0,0,1-1.59.43,3.39,3.39,0,0,1-1.58-.46,2.45,2.45,0,0,1-.51-.4,1,1,0,0,1-.25-.41.58.58,0,0,1,0-.37.52.52,0,0,1,.24-.29.25.25,0,0,1,.16-.05.48.48,0,0,1,.18.05l.43.25a.14.14,0,0,1,.09.12.56.56,0,0,1,0,.13.29.29,0,0,0,.05.23A1.1,1.1,0,0,0,203.56,381.29Zm1.7-1.87a2.12,2.12,0,0,0-.36.21c-.25.17-.36.34-.34.49a.64.64,0,0,0,.35.41,1.5,1.5,0,0,0,.71.19,1.62,1.62,0,0,0,.77-.16l.25-.13.23-.15c.2-.14.29-.28.28-.44a.58.58,0,0,0-.33-.41,1.54,1.54,0,0,0-.71-.2A1.71,1.71,0,0,0,205.26,379.42Z" style="fill:#4940FF"></path><path d="M211.5,381.25a1.86,1.86,0,0,1,.53.43.87.87,0,0,1,.19.46.72.72,0,0,1-.12.44,1.17,1.17,0,0,1-.4.4.56.56,0,0,1-.14.09l-.18.1-.17.1-.15.08a2.94,2.94,0,0,1-.69.23,3.3,3.3,0,0,1-.77.07,4.18,4.18,0,0,1-.79-.11,3,3,0,0,1-.74-.31,1.64,1.64,0,0,1-.52-.42.8.8,0,0,1-.19-.46.66.66,0,0,1,.11-.44,1.38,1.38,0,0,1,.4-.4l.13-.09.17-.1.19-.1.15-.08a2.55,2.55,0,0,1,.69-.23,4,4,0,0,1,.78-.07,3.49,3.49,0,0,1,.78.11A3.19,3.19,0,0,1,211.5,381.25Zm-.66,1.27a.68.68,0,0,0,.24-.24.29.29,0,0,0,0-.22.41.41,0,0,0-.13-.2,1.53,1.53,0,0,0-.23-.17l-.29-.13a1.54,1.54,0,0,0-.34-.08,1.64,1.64,0,0,0-.38,0,1.39,1.39,0,0,0-.42.14l-.14.06-.16.09-.16.1-.12.08a.64.64,0,0,0-.23.24.29.29,0,0,0,0,.22.49.49,0,0,0,.13.2,1.43,1.43,0,0,0,.24.16,1.22,1.22,0,0,0,.28.14,1.62,1.62,0,0,0,.73.06,1.39,1.39,0,0,0,.42-.14l.13-.06.16-.1.16-.09A.62.62,0,0,0,210.84,382.52Z" style="fill:#4940FF"></path><path d="M212.73,384.47q-.19.12-.21.24t.27.3l.39.22s.07.06.07.1,0,.07-.07.1l-.42.24a.38.38,0,0,1-.34,0l-.47-.27c-.4-.23-.61-.46-.63-.7s.17-.47.57-.7l1.36-.78-.42-.25a.1.1,0,0,1-.07-.09.1.1,0,0,1,.07-.1l.42-.25a.47.47,0,0,1,.17,0,.39.39,0,0,1,.17,0l.42.25,1-.6a.31.31,0,0,1,.17,0,.29.29,0,0,1,.17,0l.48.28a.1.1,0,0,1,.07.1.1.1,0,0,1-.06.09l-1,.6.82.48a.12.12,0,0,1,.07.1.1.1,0,0,1-.07.09l-.42.25a.43.43,0,0,1-.17,0,.39.39,0,0,1-.17,0l-.82-.48Z" style="fill:#4940FF"></path><path d="M216.38,388a1.66,1.66,0,0,1-.31-.22,1.09,1.09,0,0,1-.18-.22.45.45,0,0,1-.07-.18.27.27,0,0,1,0-.15l-1.36.78a.38.38,0,0,1-.34,0l-.48-.28s-.07-.06-.07-.1,0-.07.07-.1l4.16-2.4a.33.33,0,0,1,.17,0,.34.34,0,0,1,.18,0l.48.28a.1.1,0,0,1,.07.09.1.1,0,0,1-.07.1l-.15.09h.26a2.21,2.21,0,0,1,.33,0,3.34,3.34,0,0,1,.36.1l.39.18a1.17,1.17,0,0,1,.46.41.7.7,0,0,1,.1.44.82.82,0,0,1-.19.44,1.88,1.88,0,0,1-.44.39,1.42,1.42,0,0,1-.22.13l-.23.13a3.21,3.21,0,0,1-.68.26,3.87,3.87,0,0,1-.76.11,3.35,3.35,0,0,1-.77-.07A2.46,2.46,0,0,1,216.38,388Zm2.13-.54a2.12,2.12,0,0,0,.36-.21c.25-.17.36-.34.34-.49a.64.64,0,0,0-.35-.41,1.65,1.65,0,0,0-1.48,0l-.25.13-.23.15c-.2.14-.29.28-.28.44a.57.57,0,0,0,.34.41,1.47,1.47,0,0,0,.7.2A1.71,1.71,0,0,0,218.51,387.49Z" style="fill:#4940FF"></path><path d="M221.09,387.8a1.66,1.66,0,0,1,.4-.1,2.39,2.39,0,0,1,.54,0,3,3,0,0,1,.64.11,2.46,2.46,0,0,1,.65.28,1.92,1.92,0,0,1,.5.38.78.78,0,0,1,.2.41.58.58,0,0,1-.13.4,1.61,1.61,0,0,1-.47.4l-1.87,1.07a.33.33,0,0,1-.17,0,.29.29,0,0,1-.17,0l-.49-.28a.1.1,0,0,1,0-.19l.21-.12a2.87,2.87,0,0,1-.7,0,2.55,2.55,0,0,1-.77-.3,1.43,1.43,0,0,1-.41-.32.57.57,0,0,1-.16-.33.45.45,0,0,1,.09-.31,1,1,0,0,1,.32-.28,1.66,1.66,0,0,1,1-.21,3.82,3.82,0,0,1,1.17.28l1.21.5c.17-.1.24-.21.2-.32a.72.72,0,0,0-.32-.3,1.12,1.12,0,0,0-.29-.12,1.39,1.39,0,0,0-.3,0l-.17,0-.12-.05-.6-.34a.09.09,0,0,1-.06-.08S221,387.82,221.09,387.8Zm-.74,1.64a1.94,1.94,0,0,0,.89.26,1.28,1.28,0,0,0,.4,0,1.19,1.19,0,0,0,.32-.12l.06,0-1-.41a1.79,1.79,0,0,0-.51-.14.54.54,0,0,0-.34.07c-.09.05-.11.12-.06.19A.69.69,0,0,0,220.35,389.44Z" style="fill:#4940FF"></path><path d="M225,391.82a.11.11,0,0,0,.07-.09.29.29,0,0,0-.08-.14,2.36,2.36,0,0,0-.22-.21l-.36-.33a1.36,1.36,0,0,1-.31-.36.51.51,0,0,1-.07-.3.43.43,0,0,1,.13-.26,1.66,1.66,0,0,1,.31-.23,1.46,1.46,0,0,1,.46-.16,2.28,2.28,0,0,1,.59,0,3,3,0,0,1,.64.1,2.73,2.73,0,0,1,.64.27,2.3,2.3,0,0,1,.49.36,1.11,1.11,0,0,1,.23.35.39.39,0,0,1,0,.3.45.45,0,0,1-.19.24.38.38,0,0,1-.34,0l-.49-.28c-.07,0-.1-.07-.11-.11l0-.1a.37.37,0,0,0-.07-.14.84.84,0,0,0-.25-.18,1.61,1.61,0,0,0-.39-.16.41.41,0,0,0-.35,0,.19.19,0,0,0-.09.09.24.24,0,0,0,0,.13l.19.2.36.32c.3.26.44.49.42.68a.71.71,0,0,1-.41.5,1.38,1.38,0,0,1-.46.16,2.94,2.94,0,0,1-.6,0,3.39,3.39,0,0,1-.68-.13,3.09,3.09,0,0,1-.68-.29,2.25,2.25,0,0,1-.51-.39.89.89,0,0,1-.23-.37.49.49,0,0,1,0-.32.49.49,0,0,1,.21-.24.23.23,0,0,1,.17,0,.29.29,0,0,1,.17,0l.49.28c.07,0,.1.07.1.11s0,.07,0,.12a.23.23,0,0,0,.07.15.92.92,0,0,0,.28.22l.2.1.23.09.22,0A.34.34,0,0,0,225,391.82Z" style="fill:#4940FF"></path><path d="M228.27,393.73s.07-.06.07-.09a.23.23,0,0,0-.07-.14,1.52,1.52,0,0,0-.22-.21l-.37-.33a2.15,2.15,0,0,1-.31-.36.59.59,0,0,1-.07-.3.45.45,0,0,1,.14-.26,1.24,1.24,0,0,1,.3-.23,1.44,1.44,0,0,1,.47-.16,2.18,2.18,0,0,1,.58,0,2.93,2.93,0,0,1,.64.1,2.56,2.56,0,0,1,.64.27,2.3,2.3,0,0,1,.49.36.93.93,0,0,1,.23.34.47.47,0,0,1,0,.31.64.64,0,0,1-.2.24.29.29,0,0,1-.17,0,.43.43,0,0,1-.17,0l-.49-.29a.22.22,0,0,1-.11-.1s0-.07,0-.11a.51.51,0,0,0-.08-.13.84.84,0,0,0-.25-.18,1.19,1.19,0,0,0-.39-.16.42.42,0,0,0-.35,0s-.08,0-.08.09a.13.13,0,0,0,0,.12,1.77,1.77,0,0,0,.2.21l.35.31c.3.27.44.5.42.68a.69.69,0,0,1-.4.51,1.72,1.72,0,0,1-.47.16,2.36,2.36,0,0,1-.6,0,2.7,2.7,0,0,1-.67-.12,3.39,3.39,0,0,1-.68-.29,2.12,2.12,0,0,1-.52-.39,1.1,1.1,0,0,1-.23-.37.46.46,0,0,1,0-.33.59.59,0,0,1,.21-.24.34.34,0,0,1,.16,0,.48.48,0,0,1,.18,0l.49.29a.17.17,0,0,1,.1.11v.12a.48.48,0,0,0,.07.15.79.79,0,0,0,.28.21,1,1,0,0,0,.21.11,1.57,1.57,0,0,0,.23.09.83.83,0,0,0,.22,0A.24.24,0,0,0,228.27,393.73Z" style="fill:#4940FF"></path><path d="M233.31,396.19l2.39-.72.15,0a.31.31,0,0,1,.18.05l.48.28a.1.1,0,0,1,.07.09.1.1,0,0,1-.07.1l0,0-3.89,1.13a.41.41,0,0,1-.16,0,.3.3,0,0,1-.18,0l-.48-.28c-.06,0-.09-.07-.08-.1a.31.31,0,0,1,.05-.1l1.08-1.33-2.31.62-.17,0a.26.26,0,0,1-.17-.05l-.49-.27c-.06,0-.08-.07-.07-.11a.14.14,0,0,1,0-.09l2-2.25,0,0a.48.48,0,0,1,.18,0,.47.47,0,0,1,.17,0l.48.28c.06,0,.08.07.07.1a.19.19,0,0,1,0,.09L231.25,395l2.43-.69a.35.35,0,0,1,.16,0,.31.31,0,0,1,.17,0l.48.28s.07.06.07.1a.15.15,0,0,1,0,.09Z" style="fill:#4940FF"></path><path d="M238.75,397a1.8,1.8,0,0,1,.52.43.8.8,0,0,1,.19.46.71.71,0,0,1-.11.44,1.21,1.21,0,0,1-.41.4l-.13.09-.18.1-.18.1a.55.55,0,0,1-.15.08,2.94,2.94,0,0,1-.69.23,3.3,3.3,0,0,1-.77.07,4.19,4.19,0,0,1-.78-.11,2.83,2.83,0,0,1-.74-.31,1.69,1.69,0,0,1-.53-.42.91.91,0,0,1-.19-.46.71.71,0,0,1,.11-.44,1.52,1.52,0,0,1,.4-.4l.14-.09.17-.1.18-.1.16-.08a2.37,2.37,0,0,1,.68-.23,4.11,4.11,0,0,1,.78-.07,3.58,3.58,0,0,1,.79.11A3.38,3.38,0,0,1,238.75,397Zm-.66,1.27a.64.64,0,0,0,.23-.24.29.29,0,0,0,0-.22.49.49,0,0,0-.13-.2l-.23-.17-.29-.13a1.87,1.87,0,0,0-.34-.08,1.67,1.67,0,0,0-.81.15l-.14.07-.16.09-.16.1-.11.07a.78.78,0,0,0-.24.25.29.29,0,0,0,0,.22.41.41,0,0,0,.13.2,1,1,0,0,0,.23.16,1.55,1.55,0,0,0,.29.14,1.21,1.21,0,0,0,.34.07,1.29,1.29,0,0,0,.39,0,1.59,1.59,0,0,0,.42-.14l.13-.06.16-.1.16-.09Z" style="fill:#4940FF"></path><path d="M241.79,399.69a1.27,1.27,0,0,0-1.43,0l-1.66,1a.29.29,0,0,1-.17,0,.43.43,0,0,1-.17,0l-.48-.28s-.07-.06-.07-.1,0-.07.07-.1l3-1.71a.39.39,0,0,1,.17,0,.43.43,0,0,1,.17,0l.48.28c.05,0,.08.06.07.1s0,.07-.07.1l-.14.08a3.53,3.53,0,0,1,.59.07,1.94,1.94,0,0,1,.57.24l.29.16s.07.06.07.1,0,.07-.07.1l-.42.24a.33.33,0,0,1-.17,0,.34.34,0,0,1-.18,0Z" style="fill:#4940FF"></path><path d="M245,400.56a1.38,1.38,0,0,1,.31.23.84.84,0,0,1,.18.21.6.6,0,0,1,.08.19.86.86,0,0,1,0,.15l1.35-.78a.31.31,0,0,1,.17,0,.29.29,0,0,1,.17,0l.49.27a.15.15,0,0,1,.07.1.12.12,0,0,1-.07.1l-4.17,2.41a.31.31,0,0,1-.17,0,.34.34,0,0,1-.18,0l-.48-.28s-.07-.06-.07-.1,0-.07.07-.1l.15-.08h-.26a1.87,1.87,0,0,1-.32,0,2.93,2.93,0,0,1-.37-.1,2.33,2.33,0,0,1-.39-.19,1.19,1.19,0,0,1-.45-.4.66.66,0,0,1-.11-.44.9.9,0,0,1,.19-.44,1.71,1.71,0,0,1,.44-.4l.22-.13.23-.12a2.75,2.75,0,0,1,.68-.26,3.87,3.87,0,0,1,.76-.11,3.29,3.29,0,0,1,.77.06A2.35,2.35,0,0,1,245,400.56Zm-2.13.55a2.12,2.12,0,0,0-.36.21c-.25.17-.36.33-.34.49a.63.63,0,0,0,.35.4,1.51,1.51,0,0,0,.71.2,1.62,1.62,0,0,0,.77-.16l.26-.14.22-.14c.2-.14.3-.29.28-.44a.55.55,0,0,0-.33-.42,1.67,1.67,0,0,0-.71-.2A1.85,1.85,0,0,0,242.82,401.11Z" style="fill:#4940FF"></path><path d="M246.77,404.46s.07.06.07.1,0,.07-.07.1l-.56.32a.29.29,0,0,1-.17,0,.31.31,0,0,1-.17,0l-.55-.31s-.07-.06-.07-.1,0-.07.07-.1l.56-.32a.33.33,0,0,1,.17,0,.34.34,0,0,1,.18,0Zm3.36-2.23a2.55,2.55,0,0,1,.5.39.92.92,0,0,1,.25.43.59.59,0,0,1,0,.43,1,1,0,0,1-.42.4,2.57,2.57,0,0,1-.52.21,3.33,3.33,0,0,1-.54.07h-.54l-.52,0h-.46a1.27,1.27,0,0,0-.37.08.39.39,0,0,1-.18,0,.31.31,0,0,1-.17,0l-.48-.27s-.07-.06-.07-.1,0-.08.07-.1a1.74,1.74,0,0,1,.54-.19,3.57,3.57,0,0,1,.56-.07,3.37,3.37,0,0,1,.55,0l.51,0a2,2,0,0,0,.43,0,.8.8,0,0,0,.33-.09.31.31,0,0,0,.19-.35.73.73,0,0,0-.39-.4,1.83,1.83,0,0,0-1.33-.14l-.17,0a.3.3,0,0,1-.15-.05l-.52-.3a.09.09,0,0,1-.06-.08s0-.05.06-.08a2,2,0,0,1,.59-.18,4.06,4.06,0,0,1,1.59.08A2.66,2.66,0,0,1,250.13,402.23Z" style="fill:#4940FF"></path></g></g></g></svg>